<?xml version="1.0" encoding="UTF-8"?><svg xmlns="http://www.w3.org/2000/svg" viewBox="0 0 1000 1000"><defs><style>.cls-1{fill:#fff;}.cls-2{fill:#7de28e;}.cls-3{fill:#e0c382;}.cls-4{fill:#1ca533;}.cls-4,.cls-5,.cls-6{stroke:#000;stroke-miterlimit:10;stroke-width:20px;}.cls-5{fill:#7a5541;}.cls-6{fill:none;}</style></defs><g id="Calque_2"><polygon class="cls-2" points="279 647 489.31 637.65 723.1 647 712 682 691.2 718.58 657.03 762 604 794 543.24 820.06 476.65 820.06 399 801.46 368 778 299.57 713.54 279 647"/><polygon class="cls-3" points="409 803 403 781 406 752.47 419.3 727.05 436 705 442 684.7 445 659 445 639 550.3 637.65 550.3 668.32 543 703 526.58 730.5 509 758 510 785 513 822 459 816 409 803"/><rect class="cls-6" x="263" y="45" width="474" height="779" rx="237" ry="237"/><path class="cls-6" d="M695.52,273.65v310.35c-130.16-8.84-260.89-8.86-391.04-.06V273.65c0-99.77,87.54-180.65,195.52-180.65s195.52,80.88,195.52,180.65Z"/><polyline class="cls-1" points="314 633 314.91 633 686 633 685.52 521.83 314.48 495"/><path class="cls-6" d="M407.67,809c-15.11-29.09-10.01-67.76,11.78-89.25h0c11.82-11.66,19.18-28.98,20.3-47.74l2.25-38.01"/><path class="cls-6" d="M521.67,822c-15.11-30.42-10.01-70.86,11.78-93.33h0c11.82-12.19,19.18-30.3,20.3-49.92l2.25-39.75"/><path class="cls-6" d="M730.19,643.62l-13.37-2.27c-143.82-12.36-287.82-13.36-431.68-.26l-15.33,2.53"/><path class="cls-6" d="M691.2,639.28c-127.43-9.74-254.99-10.45-382.45-.2"/></g><g id="Calque_4"><path class="cls-5" d="M577.89,632.64h-158.58s71.73-21.64,64.56-182.38h25.88c-3.58,160.73,68.14,182.38,68.14,182.38Z"/><path class="cls-4" d="M648.1,431.93c0,44.8-66.94,81.11-149.5,81.11s-149.5-36.31-149.5-81.11c0-24.31,19.71-46.12,50.94-60.98,4.53-2.15,7.38-6.7,7.37-11.71v-.08c0-51.58,41.81-93.38,93.38-93.38s93.38,41.81,93.38,93.38v.1c0,6.12,3.33,11.71,8.74,14.57,27.87,14.74,45.19,35.32,45.19,58.1Z"/></g></svg>