<?xml version="1.0" encoding="UTF-8"?><svg id="Calque_2" xmlns="http://www.w3.org/2000/svg" viewBox="0 0 1000 1000"><defs><style>.cls-1{font-size:111.41px;}.cls-1,.cls-2{font-family:IrregardlessVar-Bold, 'Irregardless Variable';font-variation-settings:'wght' 700, 'ital' 0;font-weight:700;}.cls-3,.cls-4,.cls-5,.cls-6{font-size:178.3px;}.cls-3,.cls-7{fill:#83c1dd;}.cls-4{letter-spacing:0em;}.cls-8{fill:none;stroke-width:20px;}.cls-8,.cls-7,.cls-9{stroke:#000;stroke-miterlimit:10;}.cls-9{fill:#50bc5f;}.cls-5{letter-spacing:0em;}.cls-10{letter-spacing:-.02em;}.cls-11{font-size:181px;}.cls-12{letter-spacing:-.01em;}</style></defs><polygon class="cls-9" points="258.95 733 469.26 723.65 703.05 733 691.95 768 671.15 804.58 636.98 848 583.95 880 523.19 906.06 456.6 906.06 378.95 887.46 347.95 864 279.52 799.54 258.95 733"/><polygon class="cls-7" points="404 889 398 867 401 838.47 414.3 813.05 431 791 437 770.7 440 745 440 725 545.3 723.65 545.3 754.32 538 789 521.58 816.5 504 844 505 871 508 908 454 902 404 889"/><rect class="cls-8" x="244" y="131" width="474" height="779" rx="237" ry="237"/><path class="cls-8" d="m402.67,895c-15.11-29.09-10.01-67.76,11.78-89.25h0c11.82-11.66,19.18-28.98,20.3-47.74l2.25-38.01"/><path class="cls-8" d="m516.67,908c-15.11-30.42-10.01-70.86,11.78-93.33h0c11.82-12.19,19.18-30.3,20.3-49.92l2.25-39.75"/><path class="cls-8" d="m705.19,729.62l-13.37-2.27c-143.82-12.36-287.82-13.36-431.68-.26l-15.33,2.53"/><path class="cls-8" d="m666.2,725.28c-127.43-9.74-254.99-10.45-382.45-.2"/><path class="cls-8" d="m285.48,670.44v-295.42c0-107.98,87.54-195.52,195.52-195.52h0c107.98,0,195.52,87.54,195.52,195.52v295.48"/><text class="cls-2" transform="translate(327.49 499.21)"><tspan class="cls-11" x="0" y="0">P</tspan><tspan class="cls-5" x="46.88" y="0">a</tspan><tspan class="cls-6" x="94.13" y="0">s</tspan><tspan class="cls-3" x="129.61" y="0">S</tspan><tspan class="cls-4" x="170.08" y="0">a</tspan><tspan class="cls-6" x="217.69" y="0">ge</tspan></text><text class="cls-1" transform="translate(405.29 593.51)"><tspan class="cls-12" x="0" y="0">A</tspan><tspan class="cls-10" x="26.85" y="0">v</tspan><tspan x="53.59" y="0">enir</tspan></text></svg>