<?xml version="1.0" encoding="UTF-8"?><svg xmlns="http://www.w3.org/2000/svg" viewBox="0 0 1000 1000"><defs><style>.cls-1{fill:#83c1dd;}.cls-2{fill:#50bc5f;}.cls-3{letter-spacing:0em;}.cls-4{font-size:111.41px;}.cls-4,.cls-5{font-family:IrregardlessVar-Bold, 'Irregardless Variable';font-variation-settings:'wght' 700, 'ital' 0;}.cls-6{fill:none;stroke-width:20px;}.cls-6,.cls-7,.cls-8,.cls-9{stroke:#000;stroke-miterlimit:10;}.cls-10{letter-spacing:-.02em;}.cls-11{letter-spacing:-.03em;}.cls-12{letter-spacing:0em;}.cls-5{font-size:178.3px;}.cls-7{fill:#f5c2e9;}.cls-7,.cls-8,.cls-9{stroke-width:6px;}.cls-8{fill:#fae1ff;}.cls-9{fill:#5e7c3c;}.cls-13{letter-spacing:-.01em;}</style></defs><g id="Calque_2"><polygon class="cls-2" points="277.95 697 488.26 687.65 722.05 697 710.95 732 690.15 768.58 655.98 812 602.95 844 542.19 870.06 475.6 870.06 397.95 851.46 366.95 828 298.52 763.54 277.95 697"/><polygon class="cls-1" points="423 853 417 831 420 802.47 433.3 777.05 450 755 456 734.7 459 709 459 689 564.3 687.65 564.3 718.32 557 753 540.58 780.5 523 808 524 835 527 872 473 866 423 853"/><rect class="cls-6" x="263" y="95" width="474" height="779" rx="237" ry="237"/><path class="cls-6" d="M421.67,859c-15.11-29.09-10.01-67.76,11.78-89.25h0c11.82-11.66,19.18-28.98,20.3-47.74l2.25-38.01"/><path class="cls-6" d="M535.67,872c-15.11-30.42-10.01-70.86,11.78-93.33h0c11.82-12.19,19.18-30.3,20.3-49.92l2.25-39.75"/><path class="cls-6" d="M724.19,693.62l-13.37-2.27c-143.82-12.36-287.82-13.36-431.68-.26l-15.33,2.53"/><path class="cls-6" d="M685.2,689.28c-127.43-9.74-254.99-10.45-382.45-.2"/><path class="cls-6" d="M304.48,634.44V339.02c0-107.98,87.54-195.52,195.52-195.52h0c107.98,0,195.52,87.54,195.52,195.52v295.48"/><text class="cls-5" transform="translate(346.49 463.21)"><tspan class="cls-11" x="0" y="0">P</tspan><tspan class="cls-3" x="41.01" y="0">a</tspan><tspan x="88.26" y="0">s</tspan><tspan class="cls-1" x="123.74" y="0">S</tspan><tspan class="cls-12" x="164.21" y="0">a</tspan><tspan x="211.82" y="0">ge</tspan></text><text class="cls-4" transform="translate(424.29 557.51)"><tspan class="cls-13" x="0" y="0">A</tspan><tspan class="cls-10" x="26.85" y="0">v</tspan><tspan x="53.59" y="0">enir</tspan></text></g><g id="Calque_5"><path class="cls-9" d="M502.94,272.79c-.48,.71-11.73,16.67-30.93,15.34-16.29-1.13-25.1-13.77-26.15-15.34,1.17-2.27,3.81-6.64,8.93-10.14,4.08-2.79,8.03-3.86,10.41-4.31"/><path class="cls-7" d="M498.71,270.29c-.79,.34-18.86,7.73-34.32-3.74-13.12-9.72-13.73-25.13-13.77-27.01,2.21-1.28,6.79-3.54,12.98-3.73,4.94-.15,8.84,1.07,11.09,1.98"/><path class="cls-9" d="M492.58,272.79c.48,.71,11.73,16.67,30.93,15.34,16.29-1.13,25.1-13.77,26.15-15.34-1.17-2.27-3.81-6.64-8.93-10.14-4.08-2.79-8.03-3.86-10.41-4.31"/><path class="cls-7" d="M495.73,270.29c.79,.34,18.86,7.73,34.32-3.74,13.12-9.72,13.73-25.13,13.77-27.01-2.21-1.28-6.79-3.54-12.98-3.73-4.94-.15-8.84,1.07-11.09,1.98"/><path class="cls-8" d="M497.22,270.85c1.98-1.03,17.72-9.56,20.72-27.22,2.76-16.23-6.39-33.38-22.89-41.63-12.9,6.77-20.87,20.3-20.52,34.81,.35,14.73,9.21,28.01,22.7,34.03Z"/></g></svg>