<?xml version="1.0" encoding="UTF-8"?><svg id="Calque_2" xmlns="http://www.w3.org/2000/svg" viewBox="0 0 1000 1000"><defs><style>.cls-1{letter-spacing:.05em;}.cls-2{letter-spacing:-.02em;}.cls-3{letter-spacing:-.02em;}.cls-4{letter-spacing:.07em;}.cls-5{letter-spacing:-.02em;}.cls-6{font-family:Marianne-Regular, Marianne;font-size:154.48px;}.cls-6,.cls-7{fill:#fff;}.cls-8{fill:none;stroke:#fff;stroke-miterlimit:10;stroke-width:20px;}.cls-9{letter-spacing:0em;}.cls-10{letter-spacing:0em;}.cls-11{letter-spacing:0em;}.cls-12{letter-spacing:.07em;}.cls-7{font-family:Marianne-ExtraBold, Marianne;font-size:233.67px;font-weight:700;}</style></defs><path class="cls-8" d="m214.07,557.11v-102.97c0-173.77,141.26-314.63,315.52-314.63h0c174.26,0,315.52,140.87,315.52,314.63v102.97"/><path class="cls-8" d="m142.16,557.11v-113.81c0-209.81,171.23-379.89,382.46-379.89h0c211.23,0,382.46,170.08,382.46,379.89v51.36s0,62.45,0,62.45"/><line class="cls-8" x1="141.79" y1="913.46" x2="141.79" y2="800.24"/><line class="cls-8" x1="908.32" y1="800.24" x2="908.32" y2="913.46"/><text class="cls-6" transform="translate(252.78 909.28)"><tspan class="cls-1" x="0" y="0">A</tspan><tspan class="cls-12" x="121.42" y="0">v</tspan><tspan class="cls-4" x="214.26" y="0">enir</tspan></text><text class="cls-7" transform="translate(101.52 756.44) scale(.92 1)"><tspan class="cls-3" x="0" y="0">P</tspan><tspan class="cls-9" x="142.31" y="0">a</tspan><tspan class="cls-11" x="274.79" y="0">s</tspan><tspan class="cls-2" x="381.58" y="0">S</tspan><tspan x="514.3" y="0">a</tspan><tspan class="cls-5" x="646.79" y="0">g</tspan><tspan class="cls-10" x="771.8" y="0">e</tspan></text></svg>