<?xml version="1.0" encoding="UTF-8"?><svg id="Calque_2" xmlns="http://www.w3.org/2000/svg" viewBox="0 0 1000 1000"><defs><style>.cls-1{letter-spacing:.05em;}.cls-2{letter-spacing:-.02em;}.cls-3{font-family:Marianne-Regular, Marianne;font-size:149.4px;}.cls-4{letter-spacing:.08em;}.cls-5{letter-spacing:-.02em;}.cls-6{fill:none;stroke:#000;stroke-miterlimit:10;stroke-width:20px;}.cls-7{font-family:Marianne-ExtraBold, Marianne;font-size:226px;font-weight:700;}.cls-8{letter-spacing:0em;}.cls-9{letter-spacing:.07em;}</style></defs><path class="cls-6" d="m192.07,557.04v-99.59c0-168.06,136.63-304.31,305.16-304.31h0c168.54,0,305.16,136.24,305.16,304.31v99.59"/><path class="cls-6" d="m122.52,557.04v-110.07c0-202.92,165.61-367.42,369.9-367.42h0c204.29,0,369.9,164.5,369.9,367.42v49.67s0,60.4,0,60.4"/><line class="cls-6" x1="122.16" y1="901.7" x2="122.16" y2="792.2"/><line class="cls-6" x1="863.53" y1="792.2" x2="863.53" y2="901.7"/><text class="cls-3" transform="translate(229.51 897.65)"><tspan class="cls-1" x="0" y="0">A</tspan><tspan class="cls-9" x="117.43" y="0">v</tspan><tspan class="cls-4" x="207.22" y="0">enir</tspan></text><text class="cls-7" transform="translate(83.21 749.83) scale(.92 1)"><tspan class="cls-2" x="0" y="0">P</tspan><tspan x="137.63" y="0">a</tspan><tspan class="cls-8" x="265.77" y="0">s</tspan><tspan class="cls-2" x="369.05" y="0">S</tspan><tspan x="497.42" y="0">a</tspan><tspan class="cls-5" x="625.56" y="0">g</tspan><tspan x="746.47" y="0">e</tspan></text></svg>