<svg width="339" height="339" viewBox="0 0 339 339" fill="none" xmlns="http://www.w3.org/2000/svg">
<path d="M306.921 65.0375V71.4346C306.921 95.6844 307.162 119.938 306.801 144.182C306.66 153.713 305.255 163.202 302.469 172.459C299.418 182.597 296.181 192.585 291.041 201.928C286.108 210.892 280.838 219.559 273.819 227.078C270.664 230.459 267.886 234.229 264.508 237.362C257.029 244.299 249.204 250.886 240.19 255.78C233.269 259.537 226.367 263.545 219.015 266.231C210.09 269.492 201.106 272.618 191.449 273.878C178.477 275.571 165.519 275.233 152.648 274.557C139.426 273.862 126.743 269.724 114.597 264.275C106.874 260.808 99.414 256.893 92.4672 252.015C79.4395 242.864 67.9043 232.243 58.4583 219.311C52.1667 210.7 46.7533 201.607 42.6839 191.831C39.4614 184.089 36.3165 176.078 34.9131 167.883C33.532 159.82 31.9013 151.693 32.0047 143.315C32.3009 119.263 32.0969 95.2055 32.1092 71.1486C32.1101 69.2645 32.2645 67.3794 32.4094 64.0912C34.0916 65.9753 35.2744 66.7395 35.5585 67.7538C35.9628 69.1985 35.73 70.8285 35.7305 72.3791C35.7398 95.8532 35.5306 119.329 35.872 142.799C35.9795 150.217 37.4145 157.637 38.4917 165.019C39.9708 175.15 43.7004 184.685 47.8722 193.876C51.8268 202.587 56.7642 210.942 62.7552 218.511C66.8143 223.639 70.7203 229.043 75.5493 233.369C82.3913 239.497 89.1869 245.819 97.3429 250.34C100.53 252.108 103.49 254.286 106.663 256.08C116.945 261.89 128.109 265.445 139.463 268.36C143.514 269.4 147.877 269.208 151.944 270.204C159.419 272.033 166.962 271.297 174.452 271.184C187.932 270.984 201.048 268.705 213.773 263.863C224.62 259.735 235.005 254.875 244.549 248.284C254.745 241.245 263.845 233.09 271.79 223.465C277.335 216.746 282.366 209.739 286.594 202.218C292.047 192.515 295.808 182.044 298.726 171.295C301.411 161.402 302.367 151.326 302.313 141.082C302.193 118.385 302.277 95.6874 302.28 72.989C302.28 70.6792 301.894 68.2259 303.552 66.3234C304.108 65.6834 305.322 65.6145 306.921 65.0375Z" fill="#E5951A"/>
<path d="M283.07 64.2501C284.495 66.0538 285.553 66.8781 285.872 67.9263C286.252 69.1743 286.014 70.6143 286.015 71.9718C286.018 94.0874 285.941 116.203 286.045 138.317C286.103 150.724 284.078 162.729 280.14 174.471C274.408 191.557 265.412 206.615 252.487 219.22C248.067 223.53 243.505 227.717 238.76 231.664C235.978 233.977 232.808 235.881 229.64 237.664C218.373 244.002 206.646 249.294 193.945 252.055C189.85 252.944 185.65 253.501 181.469 253.79C177.026 254.097 172.54 253.722 168.09 253.962C155.204 254.656 142.901 252.067 130.797 247.921C117.343 243.314 105.385 236.225 94.4753 227.157C83.7477 218.241 75.1214 207.718 68.1271 195.64C62.7851 186.416 58.5305 176.796 56.1665 166.485C54.5491 159.432 53.0259 152.274 53.0372 144.922C53.0747 120.09 53.0334 95.2597 53.0491 70.4281C53.05 68.7699 53.2763 67.1126 53.505 64C55.1362 66.0431 56.2451 66.8664 56.5149 67.9079C56.8929 69.3662 56.6632 70.9857 56.6636 72.5372C56.6704 95.2345 56.7119 117.933 56.6522 140.629C56.6324 148.168 58.3095 155.457 59.4468 162.833C60.7185 171.08 63.8324 178.795 67.4133 186.133C71.4327 194.369 75.8554 202.553 82.4376 209.255C85.5387 212.412 88.1104 216.113 91.3384 219.12C102.71 229.715 115.518 238.071 130.259 243.307C136.033 245.36 141.771 247.47 147.903 248.238C153.019 248.88 158.105 249.846 163.238 250.244C171.536 250.889 179.805 249.969 188.049 249.072C190.701 248.783 193.351 248.241 195.929 247.546C211.686 243.293 226.149 236.307 239.147 226.443C242.176 224.146 244.837 221.297 247.372 218.441C249.532 216.008 252.221 214.256 254.406 211.754C265.496 199.055 272.791 184.463 277.788 168.518C280.046 161.311 280.816 153.963 281.399 146.472C283.404 120.746 281.895 94.994 282.422 69.2615C282.447 67.9941 282.739 66.7316 283.07 64.2501Z" fill="#E5951A"/>
<path d="M75.7245 64.7195C76.5081 66.3089 77.345 67.3667 77.5292 68.5284C77.7997 70.2321 77.6058 72.0095 77.6058 73.7549C77.6096 96.4523 77.3983 119.153 77.7164 141.845C77.856 151.811 79.7565 161.548 83.7138 170.903C86.8866 178.403 90.6083 185.497 95.477 191.988C102.491 201.335 110.937 209.16 120.813 215.43C129.826 221.156 139.616 225.003 150.037 227.129C160.026 229.165 170.001 230.147 180.309 228.499C186.201 227.556 192.01 226.747 197.659 224.774C208.433 221.01 218.2 215.685 227.243 208.563C243.199 196.003 252.576 179.402 258.547 160.532C259.743 156.753 259.953 152.623 260.326 148.628C262.749 122.735 260.888 96.7744 261.49 70.8508C261.532 69.0046 260.841 66.8653 263.443 65.4633C263.972 66.3321 264.778 67.1554 264.979 68.1066C265.253 69.4089 265.079 70.8072 265.079 72.1647C265.079 94.4742 265.008 116.784 265.116 139.092C265.151 146.059 264.766 152.935 262.705 159.61C260.05 168.209 257.357 176.693 252.748 184.652C248.838 191.404 243.839 197.176 239.149 203.222C236.479 206.664 232.678 209.252 229.293 212.114C223.984 216.605 218.06 220.251 211.891 223.343C202.79 227.907 193.132 231.228 183.053 232.687C177.537 233.485 171.812 232.699 166.2 232.985C152.754 233.669 140.235 229.733 128.402 224.294C116.083 218.631 105.313 210.292 96.4476 199.867C86.2156 187.834 79.2261 174.044 75.5093 158.698C74.5241 154.629 74.43 150.336 74.0179 146.135C71.6277 121.788 73.5438 97.3746 72.9445 72.9996C72.8786 70.3184 72.6032 67.55 75.7245 64.7195Z" fill="#E5951A"/>
<path d="M243.823 65.4468C243.936 67.232 244.134 68.9222 244.135 70.6124C244.145 94.6537 244.073 118.695 244.152 142.736C244.175 149.776 242.548 156.444 239.991 162.862C237.653 168.73 234.935 174.448 231.203 179.64C224.703 188.679 216.924 196.259 207.218 201.834C198.668 206.744 189.516 210.584 179.86 211.601C168.236 212.827 156.472 212.608 145.164 208.057C138.541 205.392 132.055 202.767 126.22 198.519C119.795 193.842 113.97 188.616 109.277 182.221C103.78 174.732 99.5052 166.571 97.0344 157.582C96.0783 154.102 95.3839 150.502 95.0281 146.911C92.4855 121.228 94.5229 95.4691 93.8712 69.7522C93.8257 67.9534 93.878 66.2264 96.0074 65.3789C97.7849 65.6368 98.5054 66.8286 98.5345 68.5701C98.5578 69.9277 98.5452 71.2852 98.5461 72.6418C98.552 96.1014 98.4442 119.563 98.6294 143.021C98.6915 150.927 100.858 158.444 103.96 165.785C108.435 176.372 115.421 184.982 123.952 192.382C129.463 197.165 135.862 200.632 142.545 203.681C154.223 209.011 166.603 209.405 178.825 208.124C189.678 206.988 200.132 203.359 209.009 196.392C212.176 193.905 215.465 191.57 218.585 189.026C224.368 184.311 228.6 178.137 231.884 171.704C235.584 164.458 238.56 156.826 239.633 148.398C240.693 140.077 240.407 131.835 240.488 123.563C240.657 106.503 240.538 89.4406 240.544 72.379C240.544 70.8285 240.458 69.2615 240.654 67.7333C240.846 66.2429 241.811 65.3993 243.823 65.4468Z" fill="#E5951A"/>
<path d="M221.941 65.2276C223.889 66.9605 224.289 68.9037 224.286 71.1097C224.251 92.8248 224.606 114.548 224.137 136.253C223.852 149.396 219.478 161.282 210.715 171.57C202.259 181.497 191.924 187.498 179.192 189.961C160.461 193.584 144.713 187.83 131.107 175.184C123.741 168.338 119.046 159.777 116.585 150.076C115.65 146.393 114.924 142.541 114.898 138.762C114.742 116.077 114.811 93.3921 114.827 70.7073C114.829 68.6719 114.266 66.3205 117.2 65.3604C119.544 67.0166 119.499 69.4903 119.497 71.9824C119.483 87.1056 119.49 102.23 119.49 117.353C119.49 124.527 119.502 131.7 119.492 138.874C119.469 155.166 127.018 167.428 139.618 177.11C146.502 182.399 154.373 184.741 162.769 186.432C175.365 188.968 186.457 185.057 196.733 178.893C205.218 173.804 211.117 166.032 215.335 156.79C218.569 149.703 219.662 142.578 219.63 134.989C219.542 113.855 219.582 92.721 219.629 71.5877C219.633 69.3982 218.773 66.8111 221.941 65.2276Z" fill="#E5951A"/>
<path d="M201.316 65.0414C202.045 66.1013 202.948 66.911 203.187 67.8846C203.504 69.1675 203.316 70.5794 203.316 71.936C203.32 93.0722 203.422 114.209 203.278 135.345C203.2 146.827 198.569 156.715 189.35 163.239C178.944 170.602 167.286 172.827 155.106 166.458C147.661 162.565 141.667 157.254 138.408 149.502C136.885 145.88 135.913 141.744 135.872 137.83C135.636 115.338 135.747 92.8433 135.759 70.3496C135.76 68.6556 135.336 66.7723 137.685 65.503C138.22 66.3243 139.086 67.1175 139.256 68.0388C139.535 69.5408 139.373 71.1272 139.373 72.6777C139.376 92.6502 139.4 112.624 139.355 132.596C139.344 137.061 140.289 141.323 141.543 145.554C145.398 158.579 160.01 167.474 173.875 165.082C186.521 162.9 194.739 154.983 198.302 142.564C198.821 140.756 198.643 138.725 198.645 136.796C198.665 115.078 198.639 93.3602 198.687 71.6422C198.692 69.4458 197.812 66.8557 201.316 65.0414Z" fill="#E5951A"/>
</svg>
