<svg width="339" height="339" viewBox="0 0 339 339" fill="none" xmlns="http://www.w3.org/2000/svg">
<g clip-path="url(#clip0_101_12)">
<path d="M170 33H33V36.425H170V33Z" fill="#E5951A"/>
<path d="M170 99.7876H33V103.213H170V99.7876Z" fill="#E5951A"/>
<path d="M170 66.3933H33V69.8183H170V66.3933Z" fill="#E5951A"/>
<path d="M170 83.0898H33V86.5148H170V83.0898Z" fill="#E5951A"/>
<path d="M170 49.6968H33V53.1218H170V49.6968Z" fill="#E5951A"/>
<path d="M170 116.484H33V119.909H170V116.484Z" fill="#E5951A"/>
<path d="M170 133.181H33V136.606H170V133.181Z" fill="#E5951A"/>
<path d="M170 149.877H33V153.302H170V149.877Z" fill="#E5951A"/>
<path d="M170 166.575H33V170H170V166.575Z" fill="#E5951A"/>
<path d="M170 170H166.575V307H170V170Z" fill="#E5951A"/>
<path d="M103.212 170H99.7875V307H103.212V170Z" fill="#E5951A"/>
<path d="M136.607 170H133.182V307H136.607V170Z" fill="#E5951A"/>
<path d="M119.909 170H116.484V307H119.909V170Z" fill="#E5951A"/>
<path d="M153.303 170H149.878V307H153.303V170Z" fill="#E5951A"/>
<path d="M86.5158 170H83.0908V307H86.5158V170Z" fill="#E5951A"/>
<path d="M69.819 170H66.394V307H69.819V170Z" fill="#E5951A"/>
<path d="M53.1217 170H49.6967V307H53.1217V170Z" fill="#E5951A"/>
<path d="M36.425 170H33V307H36.425V170Z" fill="#E5951A"/>
<path d="M307 33H303.575V170H307V33Z" fill="#E5951A"/>
<path d="M240.213 33H236.788V170H240.213V33Z" fill="#E5951A"/>
<path d="M273.607 33H270.182V170H273.607V33Z" fill="#E5951A"/>
<path d="M256.909 33H253.484V170H256.909V33Z" fill="#E5951A"/>
<path d="M290.303 33H286.878V170H290.303V33Z" fill="#E5951A"/>
<path d="M223.516 33H220.091V170H223.516V33Z" fill="#E5951A"/>
<path d="M206.819 33H203.394V170H206.819V33Z" fill="#E5951A"/>
<path d="M190.122 33H186.697V170H190.122V33Z" fill="#E5951A"/>
<path d="M173.425 33H170V170H173.425V33Z" fill="#E5951A"/>
<path d="M307 170H170V173.425H307V170Z" fill="#E5951A"/>
<path d="M307 236.788H170V240.213H307V236.788Z" fill="#E5951A"/>
<path d="M307 203.393H170V206.818H307V203.393Z" fill="#E5951A"/>
<path d="M307 220.09H170V223.515H307V220.09Z" fill="#E5951A"/>
<path d="M307 186.697H170V190.122H307V186.697Z" fill="#E5951A"/>
<path d="M307 253.484H170V256.909H307V253.484Z" fill="#E5951A"/>
<path d="M307 270.181H170V273.606H307V270.181Z" fill="#E5951A"/>
<path d="M307 286.877H170V290.302H307V286.877Z" fill="#E5951A"/>
<path d="M307 303.575H170V307H307V303.575Z" fill="#E5951A"/>
</g>
<defs>
<clipPath id="clip0_101_12">
<rect width="274" height="274" fill="white" transform="translate(33 33)"/>
</clipPath>
</defs>
</svg>
