<?xml version="1.0" encoding="utf-8"?>
<!-- Generator: Adobe Illustrator 27.5.0, SVG Export Plug-In . SVG Version: 6.00 Build 0)  -->
<svg version="1.1" xmlns="http://www.w3.org/2000/svg" xmlns:xlink="http://www.w3.org/1999/xlink" x="0px" y="0px"
	 viewBox="0 0 500 500" style="enable-background:new 0 0 500 500;" xml:space="preserve">
<g id="BACKGROUND">
	<rect style="fill:#FFFFFF;" width="500" height="500"/>
</g>
<g id="OBJECTS">
	<g>
		<g>
			<path style="fill:#E9F0FF;" d="M81.942,431.001c0,0-51.647-62.486-29.297-120.713c26.104-68.005,94.677-20.518,143.477-81.985
				c0,0,7.819-9.505,9.034-18.415c1.215-8.911,8.815-48.224,35.756-58.641c96.811-37.434,87.364,121.637,147.453,119.197
				c69.962-2.842,93.014,13.788,79.588,69.67c-13.592,56.573-39.989,90.888-39.989,90.888"/>
			<path style="fill:#E9F0FF;" d="M98.047,263.158c-2.319,0-4.518-0.358-6.444-1.067c-3.276-1.206-5.371-3.283-5.9-5.847
				c-1.087-5.269,4.887-10.97,13.317-12.708c8.427-1.745,16.172,1.132,17.259,6.401l0,0c1.087,5.269-4.887,10.97-13.317,12.708
				C101.301,262.987,99.645,263.158,98.047,263.158z"/>
			<path style="fill:#E9F0FF;" d="M385.858,254.229c3.761,0.707,8.153,0.406,10.685-2.463c2.645-2.998,2.163-7.87-0.208-11.089
				c-2.371-3.22-6.179-5.061-9.989-6.274c-4.383-1.395-8.978-2.123-13.578-2.15c-1.779-0.011-3.647,0.109-5.158,1.049
				c-5.39,3.352,1.082,10.46,3.852,13.231C375.363,250.436,380.422,253.207,385.858,254.229z"/>
			<path style="fill:#E9F0FF;" d="M461.009,393.312c2.411-4.749,5.634-9.356,10.352-11.827c4.718-2.471,11.194-2.186,14.699,1.824
				c3.181,3.639,3.075,9.309,0.932,13.642c-2.144,4.333-5.944,7.589-9.788,10.521c-5.338,4.072-11.098,7.834-17.602,9.502
				c-6.785,1.74-4.884-3.744-4.046-7.929C456.65,403.586,458.489,398.276,461.009,393.312z"/>
		</g>
		<path style="fill:#FF9C35;" d="M258.003,350.245c0.299-3.173,2.158-6.161,4.872-7.832c0.938-0.578,1.962-1.001,2.98-1.422
			c1.436-0.593,2.871-1.187,4.307-1.78c-0.408,2.176-0.948,4.56-2.377,6.25c-0.547,0.647-1.216,1.179-1.91,1.663
			C263.693,348.647,260.597,349.66,258.003,350.245z"/>
		<g>
			<g>
				<g>
					<g>
						<g>
							<path style="fill:#A07B35;" d="M238.029,403.778c-4.311-0.703-7.743-4.215-9.541-8.197s-2.24-8.421-2.658-12.769
								c-0.329-3.42-0.658-6.839-0.987-10.259c4.274,4.135,8.894,8.288,11.807,13.472
								C239.564,391.21,240.113,398.209,238.029,403.778z"/>
							<path style="fill:#FF9C35;" d="M248.215,386.554c-0.581-3.756-0.961-7.639-0.024-11.322
								c1.721-6.767,7.497-11.637,13.134-15.758C262.136,369.64,256.717,380.922,248.215,386.554z"/>
							<path style="fill:#FF9C35;" d="M241.148,356.597c-4.057-0.871-7.119-4.417-8.549-8.312c-1.43-3.895-1.503-8.138-1.53-12.287
								c3.082,2.254,5.932,4.844,7.821,8.162C240.78,347.477,241.99,352.873,241.148,356.597z"/>
							<path style="fill:#A07B35;" d="M248.101,334.766c-0.45-7.147,3.183-14.411,9.171-18.338
								c1.056,3.182,1.305,6.803,0.419,10.036c-0.886,3.233-3.039,6.177-6.041,7.668
								C250.439,334.733,249.424,335.044,248.101,334.766z"/>
							<path style="fill:#A07B35;" d="M241,314.737c0.778-2.977-0.807-6.186-3.191-8.132c-2.384-1.946-5.431-2.86-8.427-3.564
								c0.682,0.862,1.178,1.862,1.632,2.863c1.337,2.951,3.326,5.605,5.783,7.718C237.83,314.511,239.638,314.76,241,314.737z"/>
							<path style="fill:#FF9C35;" d="M247.253,296.045c-0.397-2.696-0.102-5.544,1.173-7.953c1.275-2.408,3.597-4.319,6.284-4.773
								c0.496,1.319,0.995,2.645,0.704,4.023c-0.196,0.929-0.738,1.745-1.304,2.507C252.434,292.102,249.5,294.362,247.253,296.045z
								"/>
							<path style="fill:#FF9C35;" d="M241.826,282.824c-1.614-0.294-2.876-1.549-3.861-2.861c-1.734-2.309-2.989-5.28-2.21-8.061
								c2.391,0.757,3.824,3.052,5.08,5.222C241.82,278.824,242.157,280.887,241.826,282.824z"/>
							<path style="fill:#A07B35;" d="M244.374,272.134c-1.199-1.407-2.444-2.912-2.743-4.736c-0.341-2.074,0.607-4.118,1.528-6.007
								c0.822-1.684,1.644-3.368,2.466-5.052c0.468,2.608,0.889,5.271,0.892,7.921C246.521,266.91,245.707,269.844,244.374,272.134z
								"/>
						</g>
						<path style="fill:#514335;" d="M255.109,369.337l-0.695-0.16c-1.885,8.224-7.735,19.18-9.713,22.743v-49.616
							c0.515-1.022,6.463-12.85,8.579-18.242l-0.664-0.26c-1.763,4.493-6.216,13.508-7.915,16.911v-40.17
							c0.49-0.81,4.423-7.32,6.651-11.033l-0.611-0.367c-1.809,3.016-4.739,7.867-6.04,10.021v-35.221h-0.712v21.451
							c-1.365-1.79-4.576-6.146-5.902-9.15l-0.652,0.288c1.637,3.711,5.925,9.23,6.554,10.031v30.619
							c-1.621-1.415-6.24-5.601-8.658-9.413l-0.602,0.383c2.781,4.384,8.377,9.222,9.26,9.972v43.822
							c-1.901-3.405-7.36-13.339-9.419-18.743l-0.666,0.253c2.419,6.35,9.468,18.857,10.085,19.947v49.062
							c-2.232-2.832-9.853-13.118-13.094-25.344l-0.689,0.183c3.659,13.803,12.838,25.156,13.783,26.299v17.401h0.712v-37.63
							C245.352,392.238,252.903,378.961,255.109,369.337z"/>
					</g>
					<path style="fill:#A07B35;" d="M229.433,289.864c-0.727-0.765-1.454-1.529-2.181-2.294c-1.136-1.194-2.303-2.438-2.851-3.993
						c-0.302-0.856-0.402-1.769-0.499-2.673c-0.262-2.435-0.523-4.906-0.118-7.321C227.437,277.906,229.626,284.207,229.433,289.864
						z"/>
					<path style="fill:#75F1BC;" d="M245.214,431.001h4.339c8.94-15.155,15.776-40.401,15.776-40.401
						C247.777,404.214,245.214,431.001,245.214,431.001z"/>
					<path style="fill:#75B7A0;" d="M247.624,431.001h8.134c10.552-8.948,14.152-18.422,14.152-18.422
						C250.544,416.74,247.624,431.001,247.624,431.001z"/>
					<path style="fill:#75B7A0;" d="M228.943,405.709c0,0-1.117,12.743,13.159,25.292h1.241
						C243.343,431.001,240.985,412.063,228.943,405.709z"/>
				</g>
				<g>
					<path style="fill:#FF9C35;" d="M401.157,431.001c0,0,4.96-33.039,16.298-38.708c11.337-5.669,16.298,10.865,16.298,10.865
						s-8.374-6.824-12.51-4.251C412.886,404.102,401.157,431.001,401.157,431.001z"/>
					<path style="fill:#FF9C35;" d="M369.945,388.761c0,0,19.507,21.493,21.69,42.24h6.114
						C397.749,431.001,386.104,398.853,369.945,388.761z"/>
					<path style="fill:#A07B35;" d="M374.807,354.384c0,0,21.393,66.359,24.347,74.199l0.109-5.702
						C398.273,382.747,374.807,354.384,374.807,354.384z"/>
					<g>
						<rect x="398.771" y="285.051" style="fill:#5874A0;" width="0.605" height="145.748"/>
						<g>
							<path style="fill:#5885A0;" d="M399.355,384.055c0.714-2.31,1.769-4.523,3.208-6.466c2.822-3.811,7.01-6.435,11.438-8.132
								c4.428-1.697,9.128-2.541,13.796-3.375c-0.705,2.922-1.59,5.675-2.84,8.409c-0.466,1.021-0.98,2.04-1.745,2.861
								c-0.862,0.925-1.996,1.547-3.15,2.064C413.595,382.308,406.199,382.223,399.355,384.055z"/>
							<path style="fill:#5885A0;" d="M399.188,398.75c-3.952-0.696-7.904-1.391-11.856-2.087c-1.56-0.275-3.177-0.572-4.471-1.486
								c-0.956-0.675-1.664-1.639-2.325-2.605c-3.046-4.451-5.468-9.328-7.176-14.444c1.288-0.521,2.651-0.045,3.95,0.448
								c2.468,0.937,4.936,1.874,7.404,2.812c4.155,1.578,8.616,3.405,10.891,7.223C397.483,391.763,399.248,395.081,399.188,398.75
								z"/>
							<path style="fill:#75B7A0;" d="M398.605,356.161c-1.265,0.003-2.496-0.396-3.669-0.868
								c-8.895-3.587-15.669-11.995-17.282-21.45c2.071,0.759,4.048,1.394,6.119,2.154c3.354,1.23,6.934,2.633,8.904,5.613
								c0.853,1.291,1.334,2.786,1.804,4.26C395.575,349.3,397.51,352.731,398.605,356.161z"/>
							<path style="fill:#5885A0;" d="M399.344,334.869c0.908-2.453,2.856-4.358,4.82-6.086c1.59-1.399,3.248-2.754,5.142-3.704
								c3.892-1.954,8.421-2.044,12.776-2.094c-0.189,2.902-1.703,5.514-4.056,7.224
								C412.708,334.073,405.401,332.318,399.344,334.869z"/>
							<path style="fill:#5885A0;" d="M398.784,308.324c-1.833-0.664-3.645-1.387-5.43-2.17c-1.615-0.708-3.23-1.476-4.577-2.613
								c-3.12-2.633-4.373-6.817-5.36-10.777c1.813-0.32,3.737,0.141,5.373,0.985c1.636,0.843,3.048,2.063,4.359,3.355
								c1.512,1.489,2.929,3.113,3.881,5.01C397.981,304.009,399.255,306.254,398.784,308.324z"/>
							<path style="fill:#75B7A0;" d="M399.35,293.998c0.43-1.713,1.36-3.298,2.646-4.509c1.613-1.519,3.708-2.411,5.79-3.172
								c2.638-0.963,5.382-1.773,8.191-1.785c-0.979,2.738-2.423,5.526-4.922,7.014c-0.89,0.53-1.88,0.87-2.878,1.15
								C405.197,293.533,402.44,294.184,399.35,293.998z"/>
							<path style="fill:#5885A0;" d="M400.094,287.509c-1.117-0.776-2.234-1.553-3.35-2.329c-1.208-0.84-2.458-1.724-3.177-3.009
								c-0.533-0.952-0.731-2.053-0.856-3.137c-0.134-1.165-0.192-2.338-0.175-3.51c2.356-0.309,4.754,1.152,5.747,3.311
								c0.399,0.867,0.569,1.819,0.736,2.759C399.352,283.463,399.762,285.639,400.094,287.509z"/>
						</g>
						<g>
							<path style="fill:#FFFFFF;" d="M406.108,331.323l-0.404-0.452c1.693-1.512,3.381-2.936,5.414-3.747
								c1.793-0.714,3.715-0.896,5.573-1.072l0.057,0.603c-1.816,0.171-3.694,0.35-5.406,1.032
								C409.401,328.462,407.759,329.848,406.108,331.323z"/>
							<path style="fill:#FFFFFF;" d="M407.431,377.997l-0.253-0.551c5.127-2.345,10.198-4.962,15.072-7.779l0.303,0.525
								C417.662,373.017,412.574,375.644,407.431,377.997z"/>
							<path style="fill:#FFFFFF;" d="M392.092,393.504c-4.683-2.809-8.898-6.303-12.525-10.385l0.452-0.402
								c3.588,4.036,7.755,7.491,12.386,10.267L392.092,393.504z"/>
							<path style="fill:#FFFFFF;" d="M390.819,348.091c-0.489-0.709-1.215-1.197-1.984-1.715c-0.236-0.16-0.473-0.318-0.702-0.485
								c-2.313-1.674-3.991-4.144-5.471-6.324l0.501-0.341c1.522,2.244,3.097,4.563,5.324,6.175
								c0.223,0.161,0.455,0.317,0.686,0.473c0.781,0.525,1.589,1.069,2.144,1.871L390.819,348.091z"/>
							<path style="fill:#FFFFFF;" d="M393.212,303.265c-1.115-0.702-2.11-1.57-2.961-2.579c-0.992-1.176-1.745-2.499-2.433-3.753
								l0.532-0.291c0.671,1.227,1.408,2.52,2.364,3.654c0.81,0.962,1.759,1.789,2.819,2.456L393.212,303.265z"/>
							<path style="fill:#FFFFFF;" d="M406.268,290.446l-0.272-0.541c1.625-0.813,3.229-1.705,4.766-2.649l0.317,0.515
								C409.527,288.724,407.909,289.624,406.268,290.446z"/>
							<path style="fill:#FFFFFF;" d="M397.687,283.067c-1.169-1.126-2.109-2.517-2.716-4.02l0.56-0.227
								c0.577,1.426,1.467,2.744,2.577,3.812L397.687,283.067z"/>
						</g>
						<path style="fill:#75B7A0;" d="M409.572,353.815c0.288-3.652,3.015-6.752,6.238-8.492c3.223-1.741,6.914-2.361,10.529-2.955
							c-0.385,2.949-2.105,5.569-4.33,7.543c-2.225,1.973-5.174,3.11-8.148,3.14C412.835,353.061,410.588,353.678,409.572,353.815z"
							/>
						<path style="fill:#FFFFFF;" d="M415.33,350.053l-0.333-0.506c2.462-1.623,5.053-3.104,7.702-4.402l0.267,0.544
							C420.34,346.975,417.77,348.444,415.33,350.053z"/>
					</g>
				</g>
				<g>
					<path style="fill:#75B7A0;" d="M151.125,403.234l6.51-0.623c5.225-12.667,10.104-27.777,10.992-41.572
						c0,0-29.588,18.23-34.283,41.406c-4.695,23.176,9.164,28.896,9.164,28.896s5.789-9.69,11.825-23.341L151.125,403.234z"/>
					<path style="fill:#76FFBE;" d="M163.981,376.345l-0.879-0.685c-0.73,0.939-2.465,1.586-3.732,1.934
						c2.045-4.209,3.365-7.018,3.402-7.097l-1.008-0.472c-0.058,0.123-3.225,6.861-7.398,15.204
						c-0.426-1.849-1.065-5.132-0.956-7.831l-1.113-0.046c-0.151,3.747,1.023,8.38,1.299,9.412
						c-3.343,6.644-7.22,14.079-10.638,19.939l0.963,0.561c1.916-3.285,3.975-7.063,6.004-10.919l0.064,0.396
						c0.204-0.033,5.043-0.833,7.952-2.977l-0.661-0.896c-2.155,1.588-5.615,2.405-6.932,2.673
						c3.108-5.934,6.112-11.979,8.39-16.646C159.678,378.696,162.73,377.95,163.981,376.345z"/>
					<path style="fill:#75F1BC;" d="M133.407,349.85l-4.992,8.037l3.165-13.056c-6.154-16.508-14.369-34.649-25.348-53.755
						c0,0-2.468,7.304-4.521,20.08l4.235,2.964l-4.775,0.599c-3.542,24.892-4.875,67.208,13.134,116.084l35.592,0.196
						C149.898,431.001,150.496,397.991,133.407,349.85z"/>
					<path style="fill:#75B7A0;" d="M90.703,352.358l-5.578,3.884l1.587-7.276c-11.501-9.367-20.373-13.124-20.373-13.124
						c-0.914,12.279-0.589,23.064,0.589,32.53l4.979,2.482l-4.565,0.553c1.744,11.771,4.835,21.387,8.483,29.193h8.419l-6.783,3.299
						c10.74,20.612,25.029,27.102,25.029,27.102l31.836-0.196C126.289,391.28,106.774,366.613,90.703,352.358z"/>
					<path style="fill:#76FFBE;" d="M116.931,425.56c-0.105-0.164-4.487-7.022-10.894-17.756c0.205-2.02,1.736-17.933-0.031-25.687
						l-1.085,0.248c1.472,6.461,0.551,19.212,0.149,23.814c-4.627-7.787-10.193-17.41-15.934-27.916
						c0.108-1.455,0.779-11.122-0.018-16.227l-1.101,0.172c0.613,3.926,0.318,10.866,0.121,14.221
						c-5.184-9.546-10.47-19.753-15.299-29.932l-1.006,0.476c2.381,5.02,4.874,10.046,7.411,14.998
						c-1.812-0.453-5.389-1.455-7.994-2.875l-0.533,0.977c3.35,1.828,8.07,2.953,9.2,3.206c4.851,9.417,9.836,18.528,14.5,26.761
						c-3.191-1.626-10.526-5.655-15.601-10.73l-0.787,0.788c6.323,6.323,16.06,11.049,17.368,11.668
						c6.125,10.757,11.61,19.878,15.379,26.021c-3.945-1.216-15.527-5.296-21.779-12.907l-0.86,0.707
						c7.414,9.026,21.564,13.093,23.511,13.619c2.67,4.332,4.283,6.856,4.346,6.954L116.931,425.56z"/>
					<path style="fill:#70AFA5;" d="M141.019,396.172l-1.113,0.035c0.214,6.777-2.742,14.866-4.039,18.068
						c-2.103-7.089-4.1-14.108-5.983-20.957c0.476-1.477,3.968-12.358,4.987-16.914l-1.087-0.244
						c-0.826,3.694-3.308,11.629-4.439,15.188c-3.71-13.587-6.966-26.461-9.707-37.832c0.447-1.615,3.858-14.145,3.317-18.744
						l-1.106,0.131c0.411,3.495-1.702,12.266-2.757,16.336c-6.017-25.153-9.4-42.409-9.461-42.723l-1.093,0.213
						c0.041,0.211,1.593,8.127,4.442,20.966c-1.653-0.706-4.986-2.333-6.046-4.357l-0.987,0.518c1.442,2.754,6.13,4.703,7.327,5.164
						c2.577,11.557,6.148,26.833,10.573,43.967c-2.825-2.001-9.896-7.397-12.707-13.112l-1,0.492
						c3.461,7.036,12.742,13.351,14.134,14.271c4.017,15.47,8.714,32.38,13.992,49.388l1.064-0.331
						c-1.009-3.251-1.995-6.498-2.961-9.733C137.051,414.424,141.283,404.513,141.019,396.172z"/>
				</g>
			</g>
			<g>
				<g>
					<path style="fill:#97485E;" d="M333.007,143.8c0.025-3.854,0.327-7.707,0.903-11.518c0.038-0.249,0.078-0.499,0.117-0.748
						c0.129,4.321,0.769,8.264,0.769,8.264c-0.614-3.662-0.241-10.709-0.071-13.338c0.022-0.255,0.038-0.509,0.052-0.764
						c0.011-0.157,0.02-0.265,0.02-0.265l-0.009,0.029c0.047-1.022,0.034-2.044-0.094-3.063c-0.207-1.647-0.69-3.248-1.283-4.798
						c-0.794-2.075-1.901-4.196-3.844-5.273c-1.514-0.839-3.319-0.905-5.045-0.605c1.506-1.573,4.727-2.031,4.727-2.031
						c-2.629-0.418-5.825,2.265-5.825,2.265s-0.998-5.886-4.25-8.182c0,0,2.217,2.817,3.24,6.582
						c-1.797-2.311-6.324-6.16-16.037-4.693c-13.567,2.05-15.812,9.175-16.886,12.884c-1.074,3.709-1.952,11.908-1.366,19.717
						c0.586,7.809-0.66,13.872-0.66,13.872c1.933,0.1,3.866,0.216,5.798,0.346c0.2-1.399,0.805-5.993,0.805-5.993
						s0.218,4.141,1.037,6.128c1.422,0.102,2.842,0.234,4.263,0.351l0.476-2.961l0.71,3.059c3.684,0.316,7.365,0.665,11.038,1.091
						c2.211,0.257,4.426,0.533,6.652,0.545c4.239,0.023,8.457-0.906,12.672-1.183l0.237-5.724c0,0,0.501,3.828,0.698,5.681
						c1.254-0.051,2.508-0.047,3.763,0.082C333.302,150.999,332.985,147.249,333.007,143.8z"/>
					<path style="fill:#F7A660;" d="M336.241,167.874c0,0,1.96-7.451-0.629-8.202c-2.589-0.751-17.283-2.213-31.226-1.964
						c-13.943,0.248-21.558,3.348-22.416,5.069c-0.858,1.721-0.644,10.731,0,11.374
						C282.614,174.794,336.241,167.874,336.241,167.874z"/>
					<path style="fill:#FFB581;" d="M333.858,409.069c1.692-0.776,3.833,1.084,7.557,2.158c0.678,0.195,1.224,0.286,1.684,0.315
						c0.488-0.057,0.938-0.117,1.324-0.172c0.889-0.375,1.031-1.211,1.401-1.542v-26.823c0,0-14.427-1.702-14.168-1.011
						c0.259,0.691,2.331,26.886,2.331,26.886S333.913,408.944,333.858,409.069z"/>
					<path style="fill:#FF9D7B;" d="M331.656,381.994c0.091,0.243,0.407,3.651,0.778,7.961c0.694-0.392,1.372-0.812,2.02-1.283
						c0.986-0.716,1.902-1.532,2.947-2.159c2.225-1.336,4.848-1.712,7.396-1.857c0.335-0.019,0.679-0.034,1.027-0.049v-1.602
						C345.824,383.005,331.397,381.303,331.656,381.994z"/>
					<g>
						<path style="fill:#59749F;" d="M340.458,257.976c0,0,0.264,5.531,0.695,13.152c0.431,7.621,0.575,10.209,1.438,13.228
							c0.863,3.02,2.188,21.281,2.172,26.025c-0.016,4.745,2.345,44.91,1.522,55.337c0,0-0.713,4.638,0.586,6.308
							c1.298,1.669,2.597,3.153,2.411,4.452c-0.185,1.298,0.742,5.379-0.927,6.028s-16.138,2.411-19.291-1.113
							c-3.153-3.524-0.649-5.379-0.649-6.4s-0.649-3.524-0.186-4.73c0.464-1.206,0.464-4.266,0.093-7.42
							c-0.371-3.153-7.404-60.83-8.627-62.054c-1.223-1.223-2.175,10.874-2.719,15.224c-0.544,4.35-5.981,34.118-7.34,40.371
							c-1.359,6.253-2.808,11.231-2.651,11.858c0.157,0.627,0.29,2.509-0.012,4.86c-0.302,2.352,2.207,2.195,1.214,4.181
							c-0.993,1.986-1.515,1.986-1.515,1.986s0.679,2.456-1.986,3.083c-2.665,0.627-15.26-3.397-17.298-5.331
							c-2.038-1.934-3.397-2.404-2.665-3.658c0.732-1.254,1.463-1.568,1.568-2.508c0.105-0.941,1.829-1.568,1.934-2.038
							c0.105-0.47-0.209-2.352,1.098-3.919c1.306-1.568,3.41-18.24,3.41-24.538c0-6.299-1.162-45.052-1.838-51.312
							c-0.677-6.259,2.876-31.805,2.876-31.805L340.458,257.976z"/>
						<path style="fill:#49628C;" d="M340.862,265.844c-0.256-4.762-0.404-7.867-0.404-7.867l-46.689-0.731
							c0,0-0.353,2.542-0.816,6.216c11.414-0.484,22.854-0.386,34.254,0.355c0.705,0.529,1.208,1.322,1.385,2.186
							c0.032,0.158,0.063,0.333,0.188,0.435c0.105,0.085,0.25,0.095,0.386,0.099C333.071,266.671,336.989,265.67,340.862,265.844z"
							/>
						<path style="fill:#4D6083;" d="M291.188,374.898c-0.789-0.096-1.499-0.521-2.142-0.988c-1.039-0.756-1.976-1.653-2.778-2.658
							c0,0-0.021-0.014-0.058-0.038c-0.132,0.394-0.393,0.691-0.713,1.074C289.218,375.956,291.188,374.898,291.188,374.898z"/>
						<path style="fill:#4D6083;" d="M306.974,373.104c0.085-0.663,0.133-1.281,0.158-1.852c-0.876,0.547-4.592,3.11-4.592,3.11
							c0.287-0.098,0.597-0.091,0.9-0.106c0.466-0.024,0.926-0.104,1.385-0.184c0.712-0.124,1.424-0.248,2.136-0.372
							c0,0,0.003-0.008,0.004-0.01C306.948,373.512,306.946,373.322,306.974,373.104z"/>
						<path style="fill:#4D6083;" d="M306.742,379.752c-0.018-0.288-0.07-0.481-0.07-0.481s0.042-0.004,0.119-0.045v-0.109
							c-1.665,0.26-3.396,0.088-4.977-0.494C301.814,378.623,302.427,380.738,306.742,379.752z"/>
						<path style="fill:#C1D6FF;" d="M294.301,377.568l-0.258-0.033c1.638-13.268,5.154-34.178,7.657-48.752
							c2.574-14.992,0.729-37.469,0.71-37.695l0.26-0.022c0.018,0.226,1.867,22.736-0.714,37.762
							C299.454,343.399,295.938,364.305,294.301,377.568z"/>
						<path style="fill:#4D6083;" d="M346.135,367.188c-2.08,3.933-5.601,7.011-5.601,7.011c2.109-0.5,4.139-1.33,5.995-2.451
							c0,0,0.018-0.085,0.048-0.236C346.048,370.34,346.048,368.485,346.135,367.188z"/>
						<path style="fill:#4D6083;" d="M328.309,373.912c0.059,0.43,0.106,0.811,0.106,1.082c0,0.124-0.038,0.261-0.097,0.412
							c2.693-0.775,4.48-2.755,4.48-2.755c-1.448,0.447-2.91,0.847-4.383,1.199C328.414,373.85,328.37,373.876,328.309,373.912z"/>
						<path style="fill:#4D6083;" d="M327.481,378.169c0.023,0.479,0.157,1.013,0.454,1.606c1.811,0.587,4.224,0.122,4.224,0.122
							c-1.58-0.424-3.121-0.996-4.596-1.705C327.563,378.192,327.53,378.182,327.481,378.169z"/>
						<path style="fill:#4D6083;" d="M349.308,378.089l-0.079-0.137c-2.316-0.008-4.51,1.428-6.809,1.156
							c0,0,0.106,1.155,2.535,0.79c1.551-0.233,3.331-0.139,4.418-0.041C349.379,379.262,349.342,378.648,349.308,378.089z"/>
					</g>
					<path style="fill:#FF6E9C;" d="M329.734,243.021c1.869-9.007-3.399-23.359-3.739-30.459s0.749-24.326,0.177-33.265
						c-0.477-7.451-3.833-17.868-3.833-17.868l-17.194,1.125c0,0,0.63,6.733-0.752,13.644c-1.382,6.911,0.296,9.083,1.481,15.205
						c1.185,6.121,1.77,25.907,1.198,30.194c-0.572,4.288,1.858,13.72,2.429,20.723c0.436,5.334,0.622,14.889,0.686,19.145
						c4.836,0.087,11.807-0.078,18.91-1.221C328.772,256.064,328.505,248.945,329.734,243.021z"/>
					<g>
						<path style="fill:#7D4177;" d="M314.365,181.725c-3.529,0-7.053-0.429-10.496-0.848l0.067-0.553
							c4.911,0.598,9.986,1.217,14.969,0.567c2.591-0.338,5.125-1.014,7.534-2.01l0.213,0.514c-2.454,1.015-5.037,1.704-7.676,2.048
							C317.444,181.644,315.904,181.725,314.365,181.725z"/>
						<path style="fill:#7D4177;" d="M306.712,198.702l-0.052-0.555l12.436-1.17c2.493-0.234,5.072-0.477,7.452-1.356l0.194,0.522
							c-2.449,0.904-5.064,1.151-7.593,1.388L306.712,198.702z"/>
						<path style="fill:#7D4177;" d="M307.519,216.939l-0.196-0.521c2.975-1.115,6.217-1.621,9.394-1.453
							c0.752,0.039,1.524,0.113,2.27,0.185c2.502,0.24,5.088,0.49,7.307-0.565l0.239,0.502c-2.357,1.122-5.023,0.866-7.599,0.617
							c-0.741-0.072-1.506-0.146-2.245-0.184C313.602,215.364,310.423,215.851,307.519,216.939z"/>
						<path style="fill:#7D4177;" d="M315.449,235.064c-2.452,0-4.901-0.305-7.266-0.918l0.139-0.54
							c5.544,1.437,11.557,1.145,16.935-0.818c0.319-0.116,0.635-0.239,0.952-0.361c1.093-0.421,2.223-0.856,3.411-1.046l0.087,0.55
							c-1.129,0.181-2.231,0.605-3.298,1.016c-0.32,0.123-0.64,0.247-0.96,0.363C322.261,234.475,318.853,235.064,315.449,235.064z"
							/>
						<path style="fill:#7D4177;" d="M319.464,252.044c-0.143,0-0.287-0.002-0.432-0.008c-1.205-0.043-2.416-0.272-3.586-0.494
							c-1.906-0.361-3.709-0.699-5.509-0.315l-0.117-0.544c1.91-0.412,3.853-0.044,5.73,0.312c1.151,0.217,2.34,0.443,3.502,0.484
							c1.643,0.066,3.293-0.245,4.894-0.539l4.934-0.907l0.1,0.548l-4.934,0.907C322.555,251.761,321.016,252.044,319.464,252.044z"
							/>
					</g>
					<path style="fill:#84D1ED;" d="M309.502,242.32c-0.571-7.003-3.001-16.436-2.429-20.723c0.572-4.288-0.013-24.073-1.198-30.194
						c-1.185-6.121-2.863-8.293-1.481-15.205c1.382-6.911,0.752-13.644,0.752-13.644c-0.338,0.355-8.502,0.272-10.668,1.105
						c-2.166,0.833-4.415,1.581-5.331,2.248c-0.916,0.667-4.499,3.416-8.331,7.082c-3.832,3.665-3.999,8.497-4.582,11.079
						c-0.583,2.582-1.416,2.749-2.416,5.332c-1,2.583-0.417,10.163-1.916,12.829c-1.499,2.666-3.582,8.664-2.999,11.913
						c0.583,3.249,7.497,14.162,7.831,15.578c0.333,1.416-1.166,4.332,0.333,5.831c1.5,1.499,1.583,1.416,1.5,2.166
						c-0.083,0.75,0.333,2.916,1.499,3.499c1.166,0.583,13.001-1.897,14.287-2.326c1.286-0.429-1.286,21.295-0.858,22.724
						c0.429,1.429,12.577,2.716,16.721,2.001C310.216,263.615,310.073,249.323,309.502,242.32z M296.469,216.283
						c-0.189,2.495-0.503,4.981-0.94,7.445c-0.161,0.907-0.553,2.017-1.471,2.094c-2.233-2.748-3.24-6.264-4.193-9.675
						c-0.295-1.055-0.592-2.128-0.578-3.224c0.027-2.152,1.235-4.092,1.816-6.164c0.27-0.962,0.604-7.184,2.055-6.507
						c0.823,0.383,0.489,2.746,0.595,3.548c0.195,1.479,0.556,2.936,1.078,4.334c0.553,1.483,1.289,2.914,1.573,4.471
						C296.624,213.814,296.562,215.057,296.469,216.283z"/>
					<path style="fill:#FF9D75;" d="M321.096,155.355c-2.074,1.415-4.534,2.312-7.458,2.351c-2.824,0.037-5.139-0.747-7.047-2.005
						c0,0-0.135,6.292,0,6.872c0.135,0.58,10.703,7.598,14.349-0.652C321.156,161.432,320.826,158.826,321.096,155.355z"/>
					<path style="fill:#FFC2C9;" d="M305.145,162.555c0,0,0.418-2.804,1.389-2.803c0.971,0.001,2.533,4.89,8.473,3.705
						c6.229-1.242,4.909-4.16,5.983-4.226c1.073-0.066,1.439,1.104,1.308,2.083c-0.131,0.979-0.911,4.559-6.698,5.15
						C306.65,167.378,305.145,162.555,305.145,162.555z"/>
					<path style="fill:#CEEDED;" d="M310.216,263.615c0,0-0.143-14.292-0.715-21.295c-0.571-7.003-3.001-16.436-2.429-20.723
						c0.572-4.288-0.013-24.073-1.198-30.194c-1.185-6.121-2.863-8.293-1.481-15.205c1.382-6.911,0.752-13.644,0.752-13.644
						c-0.1,0.106-0.903,0.173-2.026,0.236c0.093,1.216,0.464,7.233-0.771,13.407c-1.382,6.911,0.296,9.083,1.481,15.205
						c1.185,6.121,1.77,25.907,1.198,30.194c-0.572,4.288,1.858,13.72,2.43,20.723c0.572,7.003,0.715,21.295,0.715,21.295
						l-0.067,0.186C308.925,263.774,309.646,263.713,310.216,263.615z"/>
					<path style="fill:#DCEDED;" d="M281.326,241.284c0,0-0.254,3.15,2.105,3.386c2.359,0.236,11.676-1.887,12.148-3.007
						c0.472-1.12,0-3.066,0-3.066S284.823,241.377,281.326,241.284z"/>
					<path style="fill:#005976;" d="M294.172,225.595c0.742,1.169,2.059,1.696,3.133,2.525c0.544,0.41,1.047,0.921,1.329,1.571
						c0.278,0.649,0.316,1.375,0.207,2.059c-0.241,1.389-1.08,2.541-1.889,3.609c-0.403,0.542-0.828,1.074-1.16,1.652
						c-0.324,0.558-0.575,1.29-0.207,1.897c-0.41-0.584-0.204-1.366,0.095-1.956c0.327-0.606,0.742-1.143,1.134-1.695
						c0.789-1.086,1.573-2.23,1.773-3.55c0.117-0.646,0.094-1.326-0.151-1.933c-0.248-0.608-0.711-1.105-1.235-1.518
						C296.161,227.442,294.83,226.827,294.172,225.595z"/>
					<path style="fill:#005976;" d="M278.342,237.094c1.041-0.678,2.192-1.175,3.371-1.569c1.188-0.366,2.412-0.635,3.654-0.689
						c-1.21,0.268-2.408,0.546-3.574,0.936C280.617,236.134,279.481,236.606,278.342,237.094z"/>
					<g>
						
							<rect x="277.236" y="258.199" transform="matrix(0.8145 -0.5801 0.5801 0.8145 -101.5917 221.3545)" style="fill:#87754E;" width="36.258" height="22.701"/>
						
							<rect x="279.621" y="259.038" transform="matrix(0.8145 -0.5801 0.5801 0.8145 -101.2672 222.7757)" style="fill:#B0964E;" width="36.258" height="21.429"/>
						
							<rect x="285.523" y="266.492" transform="matrix(0.8145 -0.5801 0.5801 0.8145 -107.5318 218.0834)" style="fill:#CEBE4E;" width="3.526" height="21.429"/>
					</g>
					<path style="fill:#005976;" d="M296.684,235.769c-1.309,0.453-2.643,0.81-3.975,1.175c-1.34,0.335-2.678,0.678-4.041,0.924
						c1.309-0.454,2.643-0.811,3.975-1.175C293.983,236.358,295.321,236.015,296.684,235.769z"/>
					<path style="fill:#FFB581;" d="M309.58,274.209c0.339-0.509,0-3.224-1.442-4.581c-1.442-1.357-2.206-1.103-5.26-3.818
						c-3.054-2.715-8.185-23.529-8.185-23.529l-0.015,0.002c-2,0.919-6.824,2.037-9.645,2.327l7.47,20.006
						c0.946,2.794,0.849,6.274,1.131,8.053c0.583,3.671,2.064,6.1,4.574,8.841c0.427,0.466,0.902,0.926,1.504,1.119
						c0.602,0.192,1.372-0.014,1.684-0.564c0.092-0.047,0.186-0.096,0.289-0.1c0.165-0.006,0.307,0.104,0.447,0.191
						c0.511,0.316,1.181,0.357,1.726,0.104c0.545-0.253,0.948-0.79,1.036-1.384c0.577,0.09,1.191-0.095,1.622-0.489
						c0.431-0.394,0.671-0.988,0.633-1.571c0.691-0.002,1.327-0.329,1.751-0.875c0.594-0.764-0.594-2.46-0.594-2.46
						S309.241,274.718,309.58,274.209z"/>
					<path style="fill:#FF9D7B;" d="M294.693,242.282l-0.015,0.002c-2,0.919-6.824,2.037-9.645,2.327l2.809,7.521
						c0.585-1.626,1.581-3.142,2.564-4.586c0.585-0.86,1.189-1.739,2.036-2.343c0.776-0.553,1.749-0.954,2.659-1.313
						C294.843,242.888,294.693,242.282,294.693,242.282z"/>
					<path style="fill:#84D1ED;" d="M322.339,161.429c2.052-0.305,4.198,0.051,6.041,1.004c1.504,0.777,2.812,1.937,4.41,2.495
						c2.371,0.828,5.065,0.223,7.427,1.076c2.824,1.02,4.557,3.912,5.375,6.801c0.818,2.889,0.953,5.94,1.805,8.819
						c0.749,2.528,2.043,4.896,2.508,7.491c0.409,2.284,0.155,4.636,0.393,6.944c0.259,2.505,1.107,4.948,2.456,7.074
						c0.206-0.071,0.345-0.333,0.534-0.439c0.191-0.107,0.375-0.235,0.51-0.408c0.294-0.38,0.299-0.899,0.418-1.364
						c0.091-0.357,0.253-0.692,0.424-1.018c0.121-0.23,0.248-0.459,0.414-0.66c0.488-0.59,1.317-0.876,2.065-0.712
						c0.167,0.403,0.331,0.827,0.498,1.229c0.149,0.36,0.302,0.725,0.548,1.027c0.464,0.568,1.19,0.835,1.863,1.127
						c1.358,0.589,2.622,1.369,3.881,2.147c1.094,0.676,2.187,1.351,3.28,2.026c-0.795,1.174-1.49,2.327-1.743,3.721
						c-0.143,0.79-0.115,1.654-0.568,2.318c-0.749,1.097-2.507,1.19-3.139,2.358c-0.495,0.916-0.086,2.154-0.673,3.013
						c0,0-5.202,7.933-10.076,7.479s-11.335-6.007-11.335-6.007s-0.227,8.881,0.567,13.282c0.793,4.401,1.7,6.897,0.453,9.389
						c-1.247,2.492,0.907,2.719,0.907,8.386s2.04,12.925-12.128,13.773c0,0-1.59-11.772,0.279-20.78
						c1.87-9.007-3.399-23.359-3.739-30.459c-0.34-7.1,0.749-24.326,0.177-33.265C325.695,171.846,322.339,161.429,322.339,161.429z
						"/>
					<path style="fill:#78C2ED;" d="M367.189,206.088c-1.093-0.675-2.187-1.351-3.28-2.026c-1.259-0.778-2.523-1.558-3.881-2.147
						c-0.673-0.292-1.399-0.558-1.863-1.127c-0.246-0.302-0.399-0.667-0.548-1.027c-0.167-0.403-0.331-0.827-0.498-1.229
						c-0.139-0.031-0.282-0.03-0.424-0.031c-0.026,0.154-0.046,0.313-0.052,0.484c-0.066,1.947,1.591,3.065,3.081,3.954
						c1.434,0.855,2.869,1.711,4.304,2.566c0.516,0.308,1.05,0.632,1.378,1.135c0.344,0.527,0.41,1.157,0.465,1.795
						C366.21,207.615,366.671,206.853,367.189,206.088z"/>
					<path style="fill:#CEEDED;" d="M331.635,243.021c1.869-9.007-3.399-23.359-3.739-30.459c-0.34-7.1,0.75-24.326,0.177-33.265
						c-0.477-7.451-3.833-17.868-3.833-17.868c0.159-0.024,0.32-0.017,0.48-0.033c-0.793-0.074-1.593-0.084-2.381,0.033
						c0,0,3.356,10.417,3.833,17.868c0.572,8.939-0.517,26.165-0.177,33.265s5.608,21.452,3.739,30.459
						c-1.869,9.007-0.279,20.78-0.279,20.78c0.665-0.04,1.284-0.098,1.879-0.165C331.153,262.198,329.893,251.412,331.635,243.021z"
						/>
					<path style="fill:#005976;" d="M352.842,203.099c0.354,1.497,0.043,3.105-0.625,4.486c-0.696,1.379-1.735,2.565-2.959,3.472
						c1.08-1.069,2.073-2.231,2.726-3.587C352.658,206.133,352.981,204.617,352.842,203.099z"/>
					<path style="fill:#005976;" d="M339.915,219.199c0.188-0.687,0.118-1.431-0.181-2.06c-0.291-0.638-0.796-1.149-1.189-1.755
						c-0.416-0.6-0.58-1.365-0.537-2.084c0.028-0.725,0.187-1.426,0.275-2.124c0.429-2.789-0.48-5.708-2.295-7.889
						c1.998,2.05,2.909,5.073,2.552,7.924c-0.106,0.71-0.276,1.401-0.317,2.098c-0.053,0.696,0.081,1.395,0.467,1.982
						c0.365,0.595,0.872,1.123,1.159,1.796C340.123,217.762,340.143,218.525,339.915,219.199z"/>
					<path style="fill:#F7C360;" d="M294.038,163.827c-2.467-1.088-3.785,1.479-3.785,1.479s5.484,15.062,2.538,35.479
						c0,0,0.233,4.508,1.175,5.323l0.206-0.103C298.977,198.031,296.505,164.915,294.038,163.827z"/>
					<path style="fill:#F7C360;" d="M336.613,204.064c0,0,3.493-32.02-1.914-39.786c0,0-3.132-1.416-3.302,0
						c0,0,3.159,9.341,3.163,23.626C334.565,202.188,333.542,200.999,336.613,204.064z"/>
					<path style="fill:#DCEDED;" d="M368.433,203.287c-1.864-1.086-8.779-6.914-9.633-6.759c-0.854,0.156-1.68,2.004-1.68,2.004
						c0.167,0.403,0.331,0.827,0.498,1.229c0.149,0.36,0.302,0.725,0.548,1.027c0.464,0.568,1.19,0.835,1.863,1.127
						c1.358,0.589,2.622,1.369,3.881,2.147c1.094,0.675,2.187,1.351,3.28,2.026C367.189,206.088,370.297,204.374,368.433,203.287z"
						/>
					<path style="fill:#FFB581;" d="M388.219,164.47c-0.239-0.631-0.926-1.191-1.573-1.001c0.118-0.221,0.239-0.452,0.244-0.703
						c0.01-0.473-0.393-0.856-0.816-1.069c-0.684-0.344-1.54-0.419-2.229-0.086c0.191-0.293,0.165-0.695-0.02-0.992
						c-0.184-0.297-0.506-0.491-0.845-0.574c-0.511-0.125-1.106-0.013-1.521,0.31c0.005-0.314-0.006-0.642-0.156-0.917
						c-0.278-0.512-1.025-0.361-1.588-0.21c-0.729,0.195-2.186,1.829-3.238,3.676c-1.052,1.846,0.243,2.201,0.243,2.201
						s-1.619,2.833-2.024,2.995c-0.405,0.162-0.81-3.157-0.81-3.157s-1.295-1.133-2.752,0c-1.457,1.133-0.162,4.614,0.971,6.719
						c1.133,2.105-0.405,4.29-1.7,6.881s-10.322,18.61-10.322,18.61l0.01,0.01c2.018,1.316,5.733,4.333,7.626,5.654
						c2.11-4.924,10.056-23.099,14.26-27.505c1.896-1.988,4.71-3.459,5.558-6.072c0.295-0.907,0.521-1.835,0.698-2.773
						C388.361,165.805,388.458,165.101,388.219,164.47z"/>
					<path style="fill:#D3816D;" d="M385.683,168.193c-0.468,0.28-1.072,0.517-1.486,0.18c-0.454-0.278-0.296-0.932-0.068-1.425
						c0.108-0.229,0.235-0.453,0.368-0.674c0.203-0.221,0.396-0.448,0.574-0.682c0.548-0.691,1.069-1.401,1.575-2.122l-1.74,1.986
						c-0.562,0.672-1.162,1.309-1.931,1.692c-0.364,0.19-0.806,0.291-1.089,0.03c-0.3-0.26-0.362-0.695-0.32-1.111
						c0.079-0.606,0.305-1.196,0.582-1.763c0.579-0.889,1.145-1.788,1.696-2.692c-0.643,0.858-1.273,1.723-1.888,2.596
						c-0.595,0.885-1.246,1.746-2.086,2.367c-0.396,0.292-0.938,0.572-1.309,0.267c-0.383-0.294-0.429-0.853-0.286-1.344
						c0.134-0.462,0.342-0.902,0.586-1.327c0.247-0.274,0.48-0.558,0.709-0.842c0.695-0.95,1.348-1.926,1.887-2.973
						c-0.732,0.92-1.395,1.883-2.109,2.805c-0.345,0.468-0.701,0.936-1.104,1.333c-0.405,0.372-0.934,0.733-1.526,0.611
						c0.574,0.231,1.216-0.079,1.666-0.451c0.022-0.019,0.038-0.042,0.06-0.06c-0.146,0.27-0.277,0.549-0.375,0.847
						c-0.186,0.501-0.155,1.21,0.338,1.602c0.238,0.204,0.601,0.237,0.874,0.145c0.28-0.085,0.526-0.228,0.752-0.388
						c0.659-0.508,1.194-1.13,1.657-1.795c-0.148,0.328-0.271,0.669-0.336,1.034c-0.081,0.439-0.015,0.982,0.363,1.327
						c0.406,0.376,0.996,0.227,1.382,0.029c0.333-0.175,0.628-0.399,0.905-0.642c-0.021,0.035-0.048,0.064-0.067,0.1
						c-0.146,0.261-0.255,0.552-0.285,0.87c-0.041,0.315,0.099,0.69,0.384,0.877c0.266,0.199,0.637,0.246,0.939,0.163
						c0.306-0.077,0.582-0.216,0.825-0.391c0.487-0.35,0.89-0.787,1.229-1.265C386.614,167.517,386.164,167.892,385.683,168.193z"/>
					<g>
						<path style="fill:#D17458;" d="M377.258,161.672l-4.165-3.425l-0.769-1.721c-0.101-0.227,0.098-0.473,0.341-0.421l1.862,0.399
							l4.176,3.434L377.258,161.672z"/>
						<path style="fill:#D17458;" d="M390.239,172.346l-4.755-3.91c0,0,0.826-0.55,1.673-1.467l4.501,3.636
							c0.486,0.392,0.558,1.105,0.162,1.587l0,0C391.426,172.671,390.718,172.74,390.239,172.346z"/>
						<path style="fill:#F7C360;" d="M372.323,156.526l0.769,1.721l1.433-1.743l-1.862-0.399
							C372.421,156.053,372.222,156.299,372.323,156.526z"/>
						<path style="fill:#D17458;" d="M372.664,156.105c-0.243-0.052-0.442,0.194-0.341,0.421l0.268,0.6
							c0.208-0.273,0.485-0.632,0.707-0.885L372.664,156.105z"/>
					</g>
					<g>
						<path style="fill:#FF6E9C;" d="M376.957,162.117l-8.362-4.758l-0.918,1.617l8.423,4.781
							C376.101,163.758,376.495,162.817,376.957,162.117z"/>
						
							<rect x="367.268" y="157.601" transform="matrix(0.4936 -0.8697 0.8697 0.4936 48.8733 399.8918)" style="fill:#7D4177;" width="1.075" height="0.76"/>
						
							<rect x="366.661" y="156.683" transform="matrix(0.4939 -0.8695 0.8695 0.4939 48.7776 398.6521)" style="fill:#64484F;" width="0.336" height="1.486"/>
					</g>
					<path style="fill:#49628C;" d="M322.339,275.946c-0.17,4.616-2.644,24.845-2.644,24.845c0.419,0.419,1.519,7.459,2.8,16.662
						C324.516,295.738,322.339,275.946,322.339,275.946z"/>
					<g>
						<path style="fill:#FF6081;" d="M332.87,430.99h47.707c0,0,2.119-8.023-1.932-9.196c0,0-5.225-1.813-13.435-2.239
							c-8.21-0.427-11.196-3.092-13.648-6.611c-2.452-3.519-4.522-3.397-5.472-3.251c-0.949,0.146-0.365,2.775-4.674,1.534
							c-4.309-1.242-6.5-3.544-8.326-1.59c-1.826,1.955-0.876,4.876-0.876,5.826c0,0.949-0.949,2.629-1.023,3.871
							c-0.073,1.242,1.68,5.478,1.753,6.281C333.016,426.418,332.87,430.99,332.87,430.99z"/>
						<path style="fill:#725981;" d="M332.934,429.186c-0.027,1.512-0.064,1.804-0.064,1.804h47.707c0,0,0.293-0.154,0.453-1.804
							H332.934z"/>
						<path style="fill:#FFB8BC;" d="M378.645,421.794c0,0-2.364-0.816-6.396-1.483c-7.051,3.038-5.053,8.875-5.053,8.875h13.835
							C381.3,426.403,381.189,422.53,378.645,421.794z"/>
						<path style="fill:#FFB8BC;" d="M345.824,429.186c-1.98-10.595-11.155-11.216-14.244-11.469
							c-0.192,0.559-0.36,1.123-0.389,1.617c-0.073,1.242,1.68,5.478,1.753,6.281c0.042,0.466,0.011,2.197-0.023,3.571H345.824z"/>
						<circle style="fill:#725981;" cx="337.356" cy="425.09" r="2.153"/>
						<path style="fill:#725981;" d="M349.506,416.812c4.065,3.536,9.473,5.494,14.859,5.357c1.025-0.026,2.071-0.131,3-0.563
							c0.53-0.246,1.835-1.071,1.483-1.757c-1.136-0.123-2.345-0.228-3.638-0.295c-8.21-0.427-11.196-3.092-13.648-6.611
							c-0.208-0.298-0.411-0.561-0.613-0.809c-0.35-0.009-0.698,0.008-1.039,0.098c-0.986,0.259-1.873,1.112-1.887,2.132
							C348.01,415.35,348.762,416.165,349.506,416.812z"/>
						<g>
							<path style="fill:#FFB8BC;" d="M355.789,408.12c-1.206-0.253-2.253-0.08-3.114,0.517c-1.333,0.923-1.809,2.563-1.949,3.191
								c-1.255-0.141-6.769-0.562-8.091,2.692c-0.239,0.588-0.211,1.014,0.084,1.261c0.147,0.123,0.361,0.177,0.628,0.177
								c1.848,0,6.201-2.619,7.702-3.559c0.373-0.069,2.853-0.527,4.081-0.723c0.834-0.134,2.803-1.002,2.829-2.075
								C357.976,408.917,357.266,408.431,355.789,408.12z M343.078,415.354c-0.064-0.054-0.079-0.247,0.074-0.625
								c0.839-2.063,3.801-2.433,5.813-2.433c0.43,0,0.816,0.017,1.129,0.038C347.003,414.203,343.62,415.81,343.078,415.354z
								 M355.043,411.127c-1.022,0.163-2.903,0.506-3.733,0.658c0.17-0.651,0.628-1.959,1.682-2.69
								c0.509-0.352,1.102-0.53,1.77-0.53c0.29,0,0.595,0.034,0.913,0.101c1.091,0.229,1.738,0.574,1.729,0.921
								C357.389,410.177,355.899,410.99,355.043,411.127z"/>
							<path style="fill:#FFB8BC;" d="M353.55,413.598c-0.072-0.136-0.241-0.185-0.378-0.114c-1.998,1.07-3.712,2.747-4.824,4.723
								c-0.075,0.135-0.028,0.305,0.106,0.38c0.043,0.024,0.09,0.036,0.137,0.036c0.097,0,0.191-0.051,0.242-0.141
								c1.061-1.885,2.695-3.485,4.602-4.505C353.57,413.902,353.621,413.734,353.55,413.598z"/>
							<path style="fill:#FFB8BC;" d="M354.286,415.486c-1.054,1.4-1.837,2.964-2.329,4.646c-0.042,0.148,0.042,0.302,0.189,0.346
								c0.026,0.008,0.052,0.011,0.078,0.011c0.121,0,0.232-0.079,0.267-0.2c0.472-1.618,1.226-3.121,2.239-4.468
								c0.092-0.123,0.067-0.297-0.055-0.391C354.555,415.34,354.381,415.362,354.286,415.486z"/>
							<path style="fill:#FFB8BC;" d="M357.079,417.31c-0.685,1.365-1.393,2.776-1.746,4.31c-0.034,0.15,0.06,0.299,0.21,0.334
								c0.021,0.004,0.041,0.007,0.062,0.007c0.127,0,0.242-0.087,0.272-0.216c0.336-1.468,1.03-2.85,1.7-4.184
								c0.069-0.138,0.013-0.304-0.124-0.374C357.315,417.118,357.148,417.173,357.079,417.31z"/>
							<path style="fill:#FFB8BC;" d="M360.324,418.177c-0.064,0.088-1.591,2.167-1.591,4.149c0,0.153,0.125,0.278,0.279,0.278
								c0.153,0,0.278-0.125,0.278-0.278c0-1.797,1.467-3.797,1.483-3.816c0.091-0.124,0.065-0.298-0.059-0.391
								C360.592,418.028,360.417,418.055,360.324,418.177z"/>
							<path style="fill:#FFB8BC;" d="M363.542,418.789c-0.026,0.059-0.66,1.462-0.923,4.003c-0.015,0.152,0.096,0.289,0.249,0.306
								c0.01,0.001,0.02,0.001,0.028,0.001c0.141,0,0.262-0.107,0.277-0.25c0.252-2.439,0.869-3.813,0.876-3.826
								c0.063-0.14,0.002-0.306-0.138-0.37C363.774,418.592,363.606,418.649,363.542,418.789z"/>
							<path style="fill:#FFB8BC;" d="M366.765,418.96c0.031-0.151-0.068-0.298-0.219-0.327c-0.161-0.029-0.298,0.068-0.327,0.219
								c-0.02,0.098-0.471,2.404-0.352,3.989c0.011,0.147,0.133,0.258,0.277,0.258c0.007,0,0.014,0,0.021-0.001
								c0.153-0.011,0.269-0.145,0.257-0.298C366.309,421.29,366.76,418.983,366.765,418.96z"/>
						</g>
					</g>
					<g>
						<path style="fill:#FF6081;" d="M322.366,430.99c-0.351,0-31.178,0-31.178,0l-15.92-9.511c0,0,0.158-3.386,0.676-4.422
							c0.518-1.036,1.85-6.955,3.256-8.213c1.406-1.258,1.554-4.81,2.442-5.846c0.888-1.036,3.552-1.184,4.144,0
							c0.592,1.184,1.258,3.404,2.294,3.404c1.036,0,3.256-1.406,5.106-1.554c1.85-0.148,3.848,0.37,3.922,1.11
							c0.074,0.74-0.518,5.845-0.518,6.733s1.258,7.399,9.397,7.621c8.139,0.222,13.393,0.814,15.095,2.368
							S322.366,430.99,322.366,430.99z"/>
						<g>
							<path style="fill:#725981;" d="M322.366,428.651c-0.351,0-31.178,0-31.178,0l-15.73-9.397
								c-0.139,1.133-0.19,2.225-0.19,2.225l15.92,9.511c0,0,30.827,0,31.178,0c0,0,0.08-1.313,0.025-2.914
								C322.379,428.432,322.366,428.651,322.366,428.651z"/>
						</g>
						<path style="fill:#FFB8BC;" d="M322.403,428.555c-0.041-2.1-0.294-4.935-1.323-5.874c-0.859-0.784-2.626-1.323-5.21-1.693
							c-5.747,1.353-6.56,7.664-6.56,7.664h13.056C322.366,428.651,322.38,428.617,322.403,428.555z"/>
						<path style="fill:#725981;" d="M293.113,412.794c0.329,2.961,4.112,7.484,7.319,8.553c2.966,0.988,9.721,0.886,13.259-0.615
							c-2.166-0.207-4.742-0.338-7.706-0.419c-8.139-0.222-9.397-6.733-9.397-7.621c0-0.56,0.235-2.796,0.391-4.558
							c-0.037-0.018-0.056-0.027-0.056-0.027S292.785,409.833,293.113,412.794z"/>
						<path style="fill:#FFB8BC;" d="M279.032,409.028c-1.343,1.551-2.591,7.034-3.088,8.029c-0.234,0.467-0.393,1.411-0.499,2.308
							l9.329,5.454C288.78,412.907,282.322,409.823,279.032,409.028z"/>
						<path style="fill:#725981;" d="M282.688,417.345c0,0.875-0.709,1.584-1.584,1.584c-0.875,0-1.584-0.709-1.584-1.584
							c0-0.875,0.709-1.584,1.584-1.584C281.978,415.761,282.688,416.47,282.688,417.345z"/>
						<g>
							<path style="fill:#FFB8BC;" d="M302.978,419.439c-1.041,0.835-1.857,1.93-2.357,3.166c-0.058,0.142,0.011,0.304,0.153,0.362
								c0.034,0.014,0.07,0.021,0.105,0.021c0.11,0,0.214-0.065,0.258-0.174c0.466-1.148,1.223-2.164,2.19-2.94
								c0.12-0.097,0.139-0.272,0.043-0.392C303.273,419.362,303.099,419.342,302.978,419.439z"/>
							<path style="fill:#FFB8BC;" d="M300.83,418.292c-0.073-0.136-0.245-0.184-0.377-0.11c-1.19,0.654-2.255,1.568-3.078,2.646
								c-0.094,0.122-0.071,0.297,0.052,0.389c0.05,0.039,0.11,0.058,0.169,0.058c0.084,0,0.166-0.038,0.221-0.11
								c0.778-1.016,1.781-1.88,2.904-2.496C300.855,418.596,300.904,418.427,300.83,418.292z"/>
							<path style="fill:#FFB8BC;" d="M298.565,416.264c-0.059-0.144-0.224-0.21-0.362-0.156c-1.25,0.503-2.473,1.107-3.637,1.797
								c-0.133,0.078-0.176,0.249-0.098,0.381c0.052,0.088,0.145,0.137,0.239,0.137c0.049,0,0.098-0.013,0.141-0.039
								c1.14-0.674,2.338-1.266,3.561-1.758C298.553,416.568,298.622,416.406,298.565,416.264z"/>
							<path style="fill:#FFB8BC;" d="M296.603,414.249c0.268-0.114,0.544-0.232,0.797-0.409c0.126-0.088,0.157-0.262,0.068-0.388
								c-0.089-0.126-0.262-0.155-0.388-0.068c-0.205,0.145-0.444,0.246-0.696,0.353l-0.16,0.069
								c-1.303,0.569-2.498,1.423-3.458,2.469c-0.103,0.113-0.096,0.289,0.017,0.394c0.053,0.049,0.121,0.073,0.188,0.073
								c0.075,0,0.15-0.03,0.206-0.09c0.906-0.99,2.037-1.797,3.268-2.334L296.603,414.249z"/>
							<path style="fill:#FFB8BC;" d="M305.81,419.797c-0.506,0.916-0.805,1.952-0.865,2.996c-0.009,0.153,0.109,0.285,0.262,0.295
								c0.005,0,0.011,0,0.016,0c0.147,0,0.27-0.114,0.279-0.262c0.054-0.961,0.329-1.915,0.795-2.758
								c0.074-0.135,0.025-0.305-0.109-0.379C306.053,419.614,305.885,419.663,305.81,419.797z"/>
							<path style="fill:#FFB8BC;" d="M309.466,419.876c-0.149-0.02-0.295,0.082-0.318,0.233l-0.134,0.877
								c-0.09,0.606-0.185,1.231-0.144,1.865c0.009,0.147,0.132,0.26,0.277,0.26c0.005,0,0.012,0,0.018-0.001
								c0.153-0.01,0.27-0.141,0.259-0.296c-0.037-0.573,0.053-1.169,0.14-1.748l0.133-0.872
								C309.722,420.041,309.618,419.898,309.466,419.876z"/>
							<path style="fill:#FFB8BC;" d="M295.852,409.87c0.065-0.089,0.144-0.183,0.223-0.279c0.212-0.257,0.478-0.586,0.569-0.922
								l0.031,0.034c0.392,0.433,0.673,0.803,0.864,1.311c0.122,0.322,0.223,0.652,0.324,0.98c0.116,0.375,0.232,0.751,0.374,1.115
								c0.338,0.87,0.77,1.497,1.318,1.918c0.461,0.356,1.013,0.543,1.538,0.543c0.285,0,0.563-0.056,0.816-0.168
								c0.532-0.237,0.966-0.731,1.191-1.355c0.175-0.485,0.234-1.05,0.176-1.727c-0.057-0.663-0.205-1.199-0.454-1.638
								c-0.266-0.471-0.676-0.885-1.219-1.233c-0.993-0.632-3.863-1.433-4.934-0.109c-0.026-0.159-0.108-0.316-0.28-0.461
								c-0.459-0.389-1.484-0.491-2.408-0.555l-0.167-0.012c-0.84-0.06-2.058,0.006-3.104,0.684
								c-0.558,0.361-1.059,0.89-1.576,1.662c-0.358,0.536-0.842,1.355-0.901,2.276c-0.062,0.957,0.392,1.857,1.13,2.238
								c0.281,0.145,0.604,0.218,0.942,0.218c0.323,0,0.661-0.066,0.993-0.199c0.584-0.234,1.081-0.632,1.53-1.029
								C293.948,412.176,294.965,411.069,295.852,409.87z M301.303,408.918c0.465,0.298,0.813,0.647,1.034,1.038
								c0.208,0.368,0.334,0.83,0.384,1.412c0.05,0.594,0.002,1.082-0.146,1.49c-0.173,0.483-0.499,0.86-0.894,1.035
								c-0.531,0.239-1.233,0.12-1.787-0.307c-0.466-0.357-0.837-0.906-1.139-1.678c-0.137-0.352-0.249-0.715-0.361-1.077
								c-0.104-0.339-0.209-0.679-0.334-1.012c-0.191-0.508-0.451-0.888-0.797-1.291
								C298.164,407.804,300.348,408.306,301.303,408.918z M291.092,413.673c-0.531,0.211-1.067,0.212-1.474,0.004
								c-0.627-0.325-0.869-1.092-0.83-1.709c0.051-0.786,0.486-1.52,0.809-2.002c0.473-0.707,0.922-1.184,1.415-1.503
								c0.75-0.486,1.615-0.613,2.318-0.613c0.157,0,0.306,0.006,0.443,0.016l0.169,0.012c0.561,0.039,1.729,0.122,2.088,0.424
								c0.179,0.153,0.098,0.353-0.384,0.934c-0.087,0.104-0.171,0.207-0.242,0.303c-0.862,1.166-1.853,2.245-2.942,3.204
								C291.985,413.164,291.57,413.483,291.092,413.673z"/>
						</g>
					</g>
					<path style="fill:#FFB581;" d="M285.785,402.998c0.592,1.184,1.258,3.404,2.294,3.404c1.036,0,3.256-1.406,5.106-1.554
						c0.837-0.067,1.697,0.008,2.403,0.172l6.632-22.77c-3.664-0.579-9.791-2.541-12.999-4.11l-5.819,24.068
						C284.392,402.082,285.44,402.308,285.785,402.998z"/>
					<path style="fill:#FF9D7B;" d="M289.22,378.141l-0.908,3.755c3.289-0.816,6.838-0.614,9.96,0.714
						c0.942,0.401,2.091,1.227,3.284,1.917l0.663-2.275C298.555,381.672,292.428,379.71,289.22,378.141z"/>
					<g>
						<path style="fill:#D3816D;" d="M307.217,273.339c0.004,0.425,0.193,0.802,0.365,1.165c0.206,0.349,0.417,0.696,0.726,0.978
							C308.054,274.692,307.643,274.032,307.217,273.339z"/>
						<path style="fill:#D3816D;" d="M306.61,277.922c-0.046,0.208,0.042,0.38,0.123,0.539c0.109,0.143,0.219,0.286,0.417,0.356
							C307.089,278.42,306.91,278.169,306.61,277.922C306.61,277.922,306.61,277.922,306.61,277.922z"/>
						<path style="fill:#D3816D;" d="M304.281,279.876c-0.005,0.211,0.094,0.388,0.184,0.566c0.119,0.163,0.232,0.332,0.429,0.434
							c-0.007-0.231-0.098-0.395-0.184-0.566C304.597,280.155,304.491,279.999,304.281,279.876z"/>
						<path style="fill:#D3816D;" d="M300.319,279.876c0.086,0.426,0.303,0.794,0.522,1.152c0.247,0.34,0.499,0.678,0.845,0.938
							c-0.164-0.399-0.397-0.739-0.613-1.092C300.83,280.537,300.61,280.194,300.319,279.876z"/>
					</g>
					<path style="fill:#FFB581;" d="M298.012,138.628c0,0,1.793,19.455,15.602,19.273c13.809-0.182,17.419-19.174,17.17-19.174
						c-2.875-0.321-1.681-10.014-2.392-9.801c-0.711,0.213-4.265,0.071-4.265,0.071l-1.137-1.564c0,0-0.995,1.28-2.275,1.422
						c-1.28,0.142-3.199,0.071-3.199,0.071l-0.498-4.194l-0.631,4.038c-2.195,0.214-11.19-0.053-11.19-0.053v-6.05l-1.552,5.729
						l-4.551-0.535c0,0-1.445,6.692-1.713,6.318c-0.268-0.375-0.79-4.787-0.79-6.389c0,0-0.973-2.968-2.919-2.238
						c-1.946,0.73-3.127,4.721-1.654,9.099C293.769,139.856,298.012,138.628,298.012,138.628z"/>
					<path style="fill:#64484F;" d="M310.199,137.147c0,1.166-0.418,2.112-0.934,2.112c-0.516,0-0.934-0.946-0.934-2.112
						c0-1.166,0.418-2.112,0.934-2.112C309.781,135.035,310.199,135.981,310.199,137.147z"/>
					<path style="fill:#64484F;" d="M321.874,137.147c0,1.166-0.418,2.112-0.934,2.112c-0.516,0-0.934-0.946-0.934-2.112
						c0-1.166,0.418-2.112,0.934-2.112C321.456,135.035,321.874,135.981,321.874,137.147z"/>
					<path style="fill:#64484F;" d="M308.209,133.497c-0.862,0.329-1.624,0.869-2.382,1.395c-0.109,0.076-0.23,0.154-0.362,0.142
						c-0.24-0.022-0.349-0.325-0.314-0.563c0.089-0.604,0.679-0.987,1.225-1.26c1.208-0.605,2.547-1.076,3.889-0.914
						c0.295,0.035,0.613,0.118,0.786,0.359c0.523,0.73-0.446,0.629-0.776,0.594C309.558,133.172,308.888,133.238,308.209,133.497z"
						/>
					<path style="fill:#64484F;" d="M321.576,133.497c0.862,0.329,1.624,0.869,2.382,1.395c0.109,0.076,0.23,0.154,0.362,0.142
						c0.24-0.022,0.349-0.325,0.314-0.563c-0.089-0.604-0.679-0.987-1.225-1.26c-1.208-0.605-2.547-1.076-3.889-0.914
						c-0.295,0.035-0.613,0.118-0.786,0.359c-0.523,0.73,0.446,0.629,0.776,0.594C320.227,133.172,320.897,133.238,321.576,133.497z
						"/>
					<path style="fill:#FF8C75;" d="M311.682,150.389c2.22,0.816,4.649,1.056,6.985,0.69c0,0-1.277,2.053-5.601,0.848
						C308.743,150.722,311.682,150.389,311.682,150.389z"/>
					<path style="fill:#FF8C75;" d="M316.208,142.538c-0.094,0.439-0.449,0.773-0.813,1.035c-0.067,0.048-0.143,0.111-0.136,0.194
						c0.006,0.069,0.071,0.119,0.136,0.144c0.301,0.118,0.624-0.096,0.868-0.309c0.27-0.236,0.533-0.492,0.696-0.811
						s0.212-0.715,0.048-1.035c-0.205-0.4-0.746-0.655-1.17-0.665C316.012,141.553,316.322,142.006,316.208,142.538z"/>
					<path style="fill:#FF8C75;" d="M294.979,129.292c-0.312-0.294-0.779-0.411-1.192-0.299c-0.166,0.045-0.325,0.126-0.448,0.247
						c-0.215,0.212-0.297,0.521-0.362,0.816c-0.215,0.971-0.343,1.983-0.149,2.959c0.195,0.975,0.754,1.916,1.635,2.379
						c0.258,0.135,0.556,0.229,0.841,0.165c0.49-0.111,0.771-0.659,0.777-1.162c0.006-0.503-0.19-0.982-0.326-1.466
						C295.484,131.96,295.757,130.024,294.979,129.292z"/>
				</g>
				<g>
					<path style="fill:#87754E;" d="M139.709,229.127h52.646v-21.405c0-3.754-3.043-6.797-6.797-6.797h-39.052
						c-3.754,0-6.797,3.043-6.797,6.797V229.127z"/>
					<path style="fill:#CEBE4E;" d="M155.831,211.102h-8.037v-9.033c0-1.225,0.993-2.219,2.219-2.219h3.599
						c1.225,0,2.219,0.993,2.219,2.219V211.102z"/>
					<path style="fill:#CEBE4E;" d="M189.672,211.102h-8.037v-9.033c0-1.225,0.993-2.219,2.219-2.219h3.599
						c1.226,0,2.219,0.993,2.219,2.219V211.102z"/>
					<path style="fill:#B0964E;" d="M147.624,280.921h13.711v-71.034H148.55c-6,0-10.865,4.864-10.865,10.865v50.23
						C137.685,276.471,142.135,280.921,147.624,280.921z"/>
					<path style="fill:#D58A7D;" d="M179.621,205.564c-0.159-0.966-0.089-2.648,0.026-4.144c-3.463,1.523-7.412,1.561-11.118,0.493
						c-1.288-0.371-2.393-1.102-3.343-2.062h-0.001c0,0,1.153,4.136,0,4.91c-1.153,0.774-2.259,0.553-2.259,0.553
						s2.543,6.353,11.83,5.749c8.485-0.552,7.825-3.759,7.825-3.759S179.953,207.584,179.621,205.564z"/>
					<path style="fill:#84D1ED;" d="M192.881,288.308c-13.843,4.153-32.45,2.613-39.419,1.817c0,0-1.247,28.539-2.494,37.984
						c0,0,7.871,6.297,24.702,3.39l1.574-9.445l1.695,9.324c0,0,12.956,2.785,22.522-2.18c0,0-8.113-31.247-8.476-40.325
						C192.976,288.673,192.926,288.492,192.881,288.308z"/>
					<path style="fill:#6DBBED;" d="M193.193,291.267c-0.107-0.902-0.181-1.715-0.209-2.392c-0.008-0.202-0.058-0.383-0.104-0.566
						c-13.843,4.153-32.45,2.613-39.419,1.817c0,0-0.181,4.133-0.473,9.769c0.026-0.024,0.053-0.051,0.079-0.074
						c1.467-1.291,3.061-2.441,4.779-3.375c7.486-4.071,16.46-3.764,24.968-4.232C186.285,292.022,189.742,291.682,193.193,291.267z
						"/>
					<path style="fill:#E19A7D;" d="M258.894,203.446c-1.364,0.63-7.346,9.864-7.608,10.231c-0.262,0.367-1.417,0.787-1.521-0.63
						c-0.053-0.721,1.65-4.01,3.44-7.29c1.729-3.168,3.262-6.521,3.648-7.346c0.787-1.679-0.293-2.724-1.89-1.862
						c-1.597,0.862-7.89,16.344-9.775,15.409c-1.022-0.507,1.621-4.487,2.184-6.034c0.799-2.197,2.873-6.551,2.873-8.333
						c0-1.782-1.954-2.011-2.816-0.517c-0.862,1.494-1.235,4.339-3.742,9.642c-0.923,1.952-4.131,5.645-4.763,5.587
						c-0.632-0.057,0-3.735-0.287-4.368c-0.287-0.632-2.069-1.839-3.678,1.207c-1.609,3.046,0.021,8.088-1.089,11.788
						c-1.11,3.7-19.238,19.238-20.594,20.733c-1.357,1.495-1.85,2.451-3.206,0.848c-1.357-1.603-5.372-9.105-5.372-9.105
						l-10.478,5.725c0,0,9.273,19.847,17.886,18.825c5.744-0.681,27.797-27.743,30.38-30.53c2.583-2.787,5.506-3.399,8.361-4.35
						c2.855-0.952,5.37-3.195,6.322-4.622c0.952-1.428,0.816-2.991-0.544-2.583c-1.36,0.408-3.542,2.773-3.869,1.742
						c-0.589-1.853,7.312-11.044,7.784-12.618C261.011,203.421,260.258,202.816,258.894,203.446z"/>
					<path style="fill:#CF8A7D;" d="M207.867,239.083c-1.535-2.627-3.169-5.677-3.169-5.677l-8.801,4.809
						c-0.368,0.482-0.688,0.996-0.922,1.559c-0.052,0.126-0.121,0.307-0.189,0.509c0.279,0.55,0.653,1.269,1.113,2.109
						c0.605-0.206,1.271-0.584,1.588-0.705c2.212-0.849,4.464-1.632,6.791-2.101C204.65,239.511,206.289,239.231,207.867,239.083z"
						/>
					<g>
						<path style="fill:#A65C93;" d="M207.894,231.92c0,0-9.542-13.57-11.631-16.15c-2.025-2.502-6.351-8.091-13.677-8.436
							c0.04,0.307,0.205,3.206-7.829,3.728c-9.286,0.604-11.83-5.749-11.83-5.749s-7.479-1.193-12.393,3.284
							c-4.914,4.477-15.07,26.972-15.07,26.972l-4.04,8.954c0,0,7.033,7.905,20.389,6.666c0,0,2.011,19.335,0.862,28.239
							c-1.149,8.905-2.011,10.341-2.011,10.341s25.708,3.878,43.087-1.724c0,0-2.189-32.133-0.609-47.5
							C193.141,240.546,202.037,241.202,207.894,231.92z"/>
						<path style="fill:#8A5C89;" d="M193.141,240.546c0,0,0.457,0.027,1.203-0.024c-0.22-3.548-0.276-8.526-0.276-8.526
							C193.336,234.927,193.141,240.546,193.141,240.546z"/>
						<path style="fill:#F2CBD9;" d="M134.071,238.657l-2.647,5.866c0,0,7.033,7.905,20.389,6.666l1.444-4.587
							C143.241,246.508,134.071,238.658,134.071,238.657z"/>
						<path style="fill:#F2CBD9;" d="M187.376,208.389c-1.43-0.578-3.02-0.972-4.79-1.056c0.04,0.307,0.205,3.206-7.829,3.728
							c-9.286,0.604-11.83-5.749-11.83-5.749s-1.634-0.253-3.869-0.076c1.131,2.74,4.77,9.497,13.138,9.362
							C182.66,214.429,187.786,208.574,187.376,208.389z"/>
						<path style="fill:#F2CBD9;" d="M207.894,231.92c0,0-0.794-1.129-1.97-2.793c-1.431,2.304-4.856,6.083-12.585,8.001
							l-0.329,4.535l0.028,0.001c0.033-0.378,0.066-0.757,0.103-1.117C193.141,240.546,202.037,241.202,207.894,231.92z"/>
						<path style="fill:#DFBBBF;" d="M194.344,240.522c-0.07-1.132-0.123-2.408-0.164-3.623c-0.275,0.076-0.544,0.155-0.83,0.226
							c-0.155,1.883-0.209,3.421-0.209,3.421S193.598,240.574,194.344,240.522z"/>
					</g>
					<g>
						<g>
							<path style="fill:#FFD14B;" d="M151.813,251.19c0,0,5.556-15.795,5.946-30.055c0.303-11.102-4.807-14.905-4.807-14.905
								s4.016-1.779,5.372-1.406c1.355,0.374,4.085,8.726,3.651,14.853c-0.433,6.127-2.622,23.184-7.751,36.663l-2.068-1.448
								L151.813,251.19z"/>
							<path style="fill:#C78E4B;" d="M155.136,220.176l-0.688,5.841l9.503,1.118l0.687-5.842L155.136,220.176z M162.927,225.9
								l-7.095-0.835l0.289-3.658l7.171,0.844L162.927,225.9z"/>
							<path style="fill:#AB934B;" d="M158.164,243.274c0.901-3.76,1.624-7.456,2.191-10.829l-3.686-0.622
								c-0.633,3.84-1.455,7.465-2.242,10.521L158.164,243.274z"/>
						</g>
						<g>
							<path style="fill:#FFD14B;" d="M188.969,208.627c0,0-2.296-1.447-4.614-1.382c0,0-2.8,34.257,7.08,43.995
								c0.593,0.585,1.598,0.188,1.617-0.645l0.072-3.277c0.011-0.503-0.112-0.991-0.335-1.442
								C187.074,234.332,188.969,208.627,188.969,208.627z"/>
							<path style="fill:#AB934B;" d="M187.094,243.503l4.173-1.577c-0.998-3.288-1.633-7.125-2.024-11.007l-0.002,0.001
								l-4.49,1.258C185.224,236.176,185.96,240.11,187.094,243.503z"/>
							<path style="fill:#C78E4B;" d="M181.699,221.454l-0.063,5.881l9.568,0.103l0.063-5.881L181.699,221.454z M190.104,226.311
								l-7.237-0.064l0.04-3.666l7.237,0.064L190.104,226.311z"/>
						</g>
					</g>
					<g>
						<path style="fill:#F2CBD9;" d="M181.318,239.806c1.581,3.459-0.759,7.919-5.227,9.961c-4.468,2.042-9.371,0.893-10.952-2.567
							c-1.581-3.459,0.759-7.919,5.227-9.961C174.834,235.197,179.737,236.346,181.318,239.806z"/>
						<path style="fill:#FFFFFF;" d="M167.182,253.81c-0.677,0-1.016-0.324-1.171-0.548c-0.459-0.67-0.246-1.801,0.57-3.025
							l0.433,0.288c-0.817,1.225-0.832,2.066-0.573,2.443c0.205,0.299,0.637,0.395,1.209,0.266
							c4.624-1.027,9.76-10.254,10.833-15.735c0.29-1.483,0.182-2.441-0.314-2.77c-0.678-0.45-2.048,0.274-2.519,0.59l-0.29-0.432
							c0.081-0.054,1.996-1.323,3.096-0.592c0.705,0.467,0.88,1.548,0.536,3.302c-0.985,5.03-5.997,14.98-11.23,16.143
							C167.546,253.788,167.353,253.81,167.182,253.81z"/>
					</g>
					<path style="fill:#6DBBED;" d="M177.243,322.056l1.695,9.324c0.011-11.491,0.307-31.419,0.307-31.419L177.243,322.056z"/>
					<path style="fill:#E19A7D;" d="M180.465,331.644L180.465,331.644c0,0,1.344,5.96,1.531,13.451
						c0.187,7.491-1.532,64.611-1.532,64.611s7.525,2.996,14.079-0.936c0,0,4.12-54.872,4.307-64.798
						c0.094-4.991-0.38-9.79-0.874-13.33C191.129,332.864,183.616,332.118,180.465,331.644z"/>
					<path style="fill:#E1E0DD;" d="M188.591,399.245c-2.044,0.09-4.1-0.147-6.039-0.817c-0.687-0.238-1.239-0.444-1.743-0.499
						c-0.2,6.985-0.344,11.777-0.344,11.777s7.525,2.996,14.079-0.936c0,0,0.323-4.303,0.792-10.714
						C193.124,398.661,190.878,399.144,188.591,399.245z"/>
					<g>
						<path style="fill:#84D1ED;" d="M211.949,418.401c-14.236-1.437-14.57-10.097-15.378-10.322
							c-0.808-0.224-4.086,0.135-8.485,1.571c-4.4,1.437-6.51-1.751-7.59-0.946c-1.08,0.806-3.634,5.346-2.602,8.309
							c1.033,2.963,0.462,6.747,0.462,6.747v7.112h14.783c5.865-2.769,10.752,0,10.752,0h25.234
							C229.124,421.587,226.185,419.837,211.949,418.401z"/>
						<path style="fill:#7397B1;" d="M203.414,428.004c0,0-4.997-2.831-10.993,0h-14.066v2.869h14.783
							c5.865-2.769,10.752,0,10.752,0h25.234c0-1.051-0.04-2.001-0.128-2.869H203.414z"/>
						<path style="fill:#D8F4ED;" d="M220.614,419.645c-1.225,0.601-4.615,2.718-6.381,8.359h14.763
							C228.504,423.111,226.433,420.946,220.614,419.645z"/>
						<path style="fill:#D8F4ED;" d="M188.757,421.514c0,2.094-1.698,3.792-3.792,3.792s-3.792-1.698-3.792-3.792
							c0-2.094,1.698-3.792,3.792-3.792S188.757,419.419,188.757,421.514z"/>
						<path style="fill:#7397B1;" d="M216.338,418.91c-1.33-0.18-2.784-0.347-4.389-0.509c-10.262-1.036-13.299-5.823-14.499-8.501
							c-0.016,0.012-3,2.141-1.166,4.776C198.122,417.319,210.824,424.461,216.338,418.91z"/>
						<g>
							<path style="fill:#D8F4ED;" d="M203.941,403.143c-0.207-0.648-0.756-1.055-1.634-1.21c-1.034-0.183-1.9,0.177-2.58,1.068
								c-1.671,2.19-1.697,7.042-1.575,8.536c-1.163-0.136-4.825-0.394-5.986,1.563c-0.691,1.164-0.295,1.889,0.002,2.218
								c0.412,0.454,1.125,0.695,1.885,0.695c0.504,0,1.03-0.107,1.501-0.326c1.747-0.818,3.006-3.376,3.143-3.664
								C199.142,411.57,204.775,405.76,203.941,403.143z M200.341,403.134c0.421-0.461,0.902-0.689,1.463-0.689
								c0.131,0,0.266,0.012,0.406,0.037c0.667,0.117,1.059,0.389,1.2,0.83c0.575,1.803-2.912,5.999-4.736,7.932
								C198.587,409.635,198.689,404.949,200.341,403.134z M195.318,415.182c-0.959,0.45-2.214,0.339-2.737-0.238
								c-0.43-0.475-0.203-1.111,0.064-1.559c0.676-1.139,2.494-1.379,3.913-1.379c0.607,0,1.142,0.043,1.48,0.081
								C197.638,412.834,196.592,414.586,195.318,415.182z"/>
							<path style="fill:#D8F4ED;" d="M200.982,413.316c-0.047-0.146-0.201-0.224-0.35-0.18c-0.101,0.033-2.484,0.831-3.698,3.473
								c-0.064,0.14-0.003,0.306,0.137,0.37c0.038,0.017,0.077,0.025,0.116,0.025c0.106,0,0.206-0.06,0.253-0.162
								c1.109-2.412,3.342-3.168,3.365-3.176C200.949,413.618,201.029,413.462,200.982,413.316z"/>
							<path style="fill:#D8F4ED;" d="M202.585,414.716c-0.078-0.132-0.248-0.179-0.38-0.1c-0.074,0.042-1.831,1.084-2.72,3.611
								c-0.051,0.145,0.025,0.305,0.17,0.355c0.03,0.011,0.062,0.016,0.092,0.016c0.115,0,0.223-0.072,0.263-0.186
								c0.817-2.323,2.458-3.305,2.474-3.315C202.617,415.019,202.662,414.849,202.585,414.716z"/>
							<path style="fill:#D8F4ED;" d="M204.273,415.722c-0.077,0.098-1.888,2.405-2.032,4.096c-0.013,0.153,0.101,0.288,0.254,0.301
								c0.008,0.001,0.016,0.001,0.024,0.001c0.143,0,0.264-0.11,0.277-0.254c0.13-1.525,1.897-3.775,1.915-3.798
								c0.095-0.121,0.074-0.296-0.046-0.392C204.542,415.582,204.369,415.601,204.273,415.722z"/>
							<path style="fill:#D8F4ED;" d="M206.529,416.77c-0.042,0.083-1.035,2.029-1.035,4.199c0,0.153,0.124,0.278,0.278,0.278
								s0.278-0.125,0.278-0.278c0-2.032,0.963-3.923,0.973-3.943c0.07-0.136,0.017-0.305-0.12-0.374
								C206.768,416.579,206.599,416.635,206.529,416.77z"/>
							<path style="fill:#D8F4ED;" d="M209.535,417.283c-0.032,0.071-0.79,1.767-0.543,4.236c0.014,0.145,0.135,0.251,0.276,0.251
								c0.009,0,0.019,0,0.028-0.001c0.153-0.015,0.265-0.152,0.249-0.304c-0.231-2.312,0.489-3.935,0.496-3.952
								c0.064-0.14,0.002-0.305-0.138-0.369C209.764,417.081,209.6,417.144,209.535,417.283z"/>
							<path style="fill:#D8F4ED;" d="M213.429,417.71c-0.135-0.076-0.303-0.027-0.378,0.108c-0.039,0.071-0.962,1.75-0.908,3.845
								c0.004,0.151,0.128,0.271,0.278,0.271c0.002,0,0.005,0,0.007,0c0.154-0.004,0.275-0.132,0.271-0.286
								c-0.049-1.937,0.829-3.542,0.837-3.559C213.611,417.955,213.563,417.785,213.429,417.71z"/>
						</g>
					</g>
					<path style="fill:#E19A7D;" d="M171.245,332.061c-8.005,0.703-13.566-0.731-16.803-2.074
						c-0.107,4.319-0.319,12.393-0.441,14.354c-0.169,2.71-4.574,7.454-8.383,10.842c-3.809,3.388-10.929,11.35-14.825,16.263
						c-3.896,4.913-11.519,10.503-11.519,10.503s7.454,10.842,8.131,11.181c0.678,0.339,35.066-35.575,39.979-39.471
						c4.913-3.896,4.579-21.645,4.579-21.645L171.245,332.061z"/>
					<path style="fill:#CF8A7D;" d="M171.245,332.061c-8.005,0.703-13.566-0.731-16.803-2.074c-0.02,0.821-0.045,1.777-0.071,2.801
						c0.579-0.049,1.162-0.066,1.743-0.046c1.464,0.051,2.911,0.323,4.344,0.624c2.829,0.594,5.674,1.337,8.262,2.657
						c0.633,0.323,1.25,0.68,1.839,1.079c0.387,0.262,0.809,0.727,1.23,1.045c0.223-3.479,0.174-6.134,0.174-6.134L171.245,332.061z
						"/>
					<path style="fill:#E1E0DD;" d="M126.455,376.002C126.455,376.002,126.455,376.002,126.455,376.002
						c-3.537,3.273-7.181,5.945-7.181,5.945s7.454,10.842,8.131,11.181c0.198,0.099,3.279-2.903,7.652-7.286
						C131.595,383.345,127.681,377.809,126.455,376.002z"/>
					<g>
						<path style="fill:#84D1ED;" d="M129.669,411.297c-6.735-12.625,0.272-17.725,0.009-18.521
							c-0.264-0.796-2.387-3.318-6.031-6.173c-3.644-2.854-2.171-6.382-3.441-6.831c-1.27-0.448-6.464-0.042-8.35,2.466
							c-1.886,2.508-5.347,4.141-5.347,4.141l-5.907,3.961l8.232,12.278c5.566,3.329,5.988,8.93,5.988,8.93l14.053,20.959
							C136.587,427.337,136.404,423.922,129.669,411.297z"/>
						<path style="fill:#7397B1;" d="M116.94,409.557c0,0-0.431-5.727-6.122-9.131l-7.833-11.683l-2.383,1.598l8.232,12.278
							c5.566,3.329,5.988,8.93,5.988,8.93l14.053,20.959c0.873-0.585,1.639-1.148,2.312-1.704L116.94,409.557z"/>
						<path style="fill:#D8F4ED;" d="M133.462,419.187c-1.181-0.682-4.828-2.319-10.496-0.645l8.221,12.262
							C134.976,427.671,135.621,424.746,133.462,419.187z"/>
						<path style="fill:#D8F4ED;" d="M114.168,393.768c-1.74,1.166-4.095,0.702-5.262-1.038c-1.166-1.74-0.702-4.095,1.038-5.262
							c1.74-1.166,4.095-0.702,5.261,1.038C116.372,390.246,115.908,392.602,114.168,393.768z"/>
						<path style="fill:#7397B1;" d="M131.691,415.226c-0.591-1.205-1.262-2.506-2.021-3.929c-4.854-9.1-2.569-14.289-1.014-16.776
							c-0.019-0.007-3.449-1.3-4.617,1.691C122.868,399.211,124.009,413.738,131.691,415.226z"/>
						<g>
							<g>
								<path style="fill:#D8F4ED;" d="M133.429,397.32c-2.741,0-5.682-0.549-5.888-0.59l-0.392-0.074l0.205-0.343
									c0.182-0.305,5.125-3.941,8.302-3.741c1.117,0.069,1.897,0.59,2.321,1.548c0.36,0.815,0.328,1.498-0.094,2.03
									C137.166,397.051,135.346,397.32,133.429,397.32z M128.221,396.287c2.621,0.437,8.048,0.999,9.226-0.484
									c0.288-0.362,0.295-0.839,0.021-1.459c-0.304-0.686-0.821-1.076-1.582-1.189
									C133.457,392.793,129.508,395.318,128.221,396.287z"/>
								<path style="fill:#D8F4ED;" d="M125.976,396.847c-1.011,0-2.277-0.132-3.183-0.679c-1.117-0.673-1.826-2.027-1.579-3.016
									c0.107-0.431,0.488-1.163,1.84-1.238c2.664-0.14,4.706,4.241,4.792,4.427l0.155,0.335l-0.365,0.057
									C127.576,396.741,126.877,396.847,125.976,396.847z M123.185,392.468c-0.034,0-0.067,0.001-0.101,0.003
									c-0.521,0.028-1.176,0.193-1.331,0.815c-0.188,0.757,0.42,1.858,1.327,2.406c1.204,0.725,3.24,0.619,4.086,0.536
									C126.648,395.238,125.031,392.468,123.185,392.468z"/>
							</g>
							<g>
								<path style="fill:#D8F4ED;" d="M127.565,399.464c-0.06,0-0.12-0.02-0.171-0.06c-0.019-0.014-1.887-1.448-4.51-1.026
									c-0.153,0.018-0.295-0.078-0.319-0.231c-0.025-0.152,0.078-0.295,0.23-0.32c2.874-0.456,4.861,1.072,4.944,1.139
									c0.121,0.094,0.141,0.27,0.046,0.391C127.73,399.427,127.648,399.464,127.565,399.464z"/>
								<path style="fill:#D8F4ED;" d="M127.264,401.625c-0.041,0-0.082-0.009-0.121-0.028c-0.017-0.008-1.745-0.824-4.13-0.209
									c-0.151,0.036-0.301-0.051-0.339-0.2c-0.038-0.149,0.051-0.301,0.2-0.339c2.595-0.667,4.437,0.21,4.514,0.248
									c0.138,0.067,0.195,0.234,0.128,0.372C127.466,401.567,127.367,401.625,127.264,401.625z"/>
								<path style="fill:#D8F4ED;" d="M123.22,404.545c-0.098,0-0.193-0.052-0.244-0.144c-0.075-0.135-0.026-0.305,0.109-0.379
									c1.486-0.822,4.412-0.601,4.534-0.593c0.153,0.012,0.268,0.146,0.256,0.299c-0.012,0.152-0.135,0.273-0.299,0.256
									c-0.028-0.002-2.882-0.216-4.221,0.525C123.312,404.534,123.265,404.545,123.22,404.545z"/>
								<path style="fill:#D8F4ED;" d="M124.097,407.876c-0.09,0-0.178-0.044-0.231-0.123c-0.086-0.128-0.052-0.301,0.076-0.387
									c1.803-1.208,3.971-1.467,4.062-1.477c0.146-0.016,0.29,0.09,0.308,0.245c0.017,0.152-0.092,0.29-0.245,0.308
									c-0.021,0.003-2.128,0.257-3.815,1.388C124.205,407.86,124.15,407.876,124.097,407.876z"/>
								<path style="fill:#D8F4ED;" d="M125.609,411.072c-0.08,0-0.16-0.035-0.215-0.101c-0.098-0.118-0.081-0.294,0.037-0.392
									c1.914-1.581,3.745-1.897,3.822-1.91c0.146-0.023,0.294,0.077,0.32,0.23c0.025,0.151-0.078,0.295-0.229,0.321
									c-0.017,0.002-1.766,0.309-3.558,1.788C125.735,411.052,125.672,411.072,125.609,411.072z"/>
								<path style="fill:#D8F4ED;" d="M127.229,413.781c-0.087,0-0.173-0.041-0.227-0.118c-0.089-0.125-0.059-0.299,0.066-0.388
									c1.71-1.212,3.618-1.38,3.699-1.387c0.132-0.029,0.287,0.1,0.3,0.255c0.013,0.153-0.101,0.287-0.255,0.3
									c-0.018,0.002-1.841,0.166-3.422,1.287C127.341,413.764,127.285,413.781,127.229,413.781z"/>
							</g>
						</g>
					</g>
					<g>
						<line style="fill:#D1E8ED;" x1="158.545" y1="308.624" x2="158.545" y2="329.508"/>
						<rect x="158.405" y="308.624" style="fill:#D1E8ED;" width="0.278" height="20.884"/>
					</g>
					<path style="fill:#D1E8ED;" d="M169.246,295.894c-3.437,2.422-7.619,3.772-11.824,3.814l0.232,2.289
						c3.342,0.102,6.752-0.38,9.76-1.839c1.005-0.488,1.891-1.141,2.672-1.94C169.802,297.452,169.53,296.662,169.246,295.894z"/>
					<g>
						<g>
							<path style="fill:#59749F;" d="M192.692,299.808l-0.271-0.081c-2.538-0.755-4.925-1.946-7.053-3.521l-0.228-0.168
								c-1.429-1.057-1.892-2.987-1.098-4.578l13.019-26.083c0.52-1.042,1.678-1.603,2.818-1.366l0.886,0.184
								c2.96,0.616,5.71,1.989,7.982,3.984l0.68,0.597c0.875,0.769,1.123,2.031,0.602,3.073l-13.019,26.083
								C196.217,299.524,194.396,300.315,192.692,299.808z"/>
							<path style="fill:#84D1ED;" d="M198.75,294.45l9.749-19.532c-0.601,0.155-1.174,0.316-1.642,0.381
								c-2.263,0.314-4.573,0.238-6.825-0.13c-2.36-0.385-4.653-1.083-6.879-1.962l-8.874,17.778c0.86,0.53,1.773,0.986,2.687,1.396
								c2.543,1.139,5.238,2.023,8.019,2.202C196.243,294.665,197.499,294.596,198.75,294.45z"/>
							<path style="fill:#595D6D;" d="M199.879,264.011l0.886,0.184c2.96,0.616,5.71,1.989,7.982,3.984l0.68,0.597
								c0.106,0.093,0.202,0.194,0.29,0.301l0.694-1.39c0.332-0.665,0.062-1.473-0.603-1.805l-7.844-3.915
								c-0.665-0.332-1.473-0.062-1.805,0.603l-0.694,1.39C199.602,263.966,199.74,263.982,199.879,264.011z"/>
							
								<rect x="205.323" y="260.89" transform="matrix(0.4466 -0.8947 0.8947 0.4466 -121.1403 330.1778)" style="fill:#59749F;" width="2.031" height="4.253"/>
						</g>
						<g>
							<path style="fill:#E19A7D;" d="M206.251,285.141c-0.538-0.412-2.054-0.295-2.054-0.295s1.69-0.966,1.013-2.174
								c-0.676-1.208-2.657-1.073-4.397-1.16c-4.318-0.216-9.277-3.914-9.277-4.687s2.271-2.802,1.643-3.962
								c-0.628-1.16-2.657-1.401-4.204-0.966c-1.546,0.435-2.416,2.513-5.363,2.126c-2.948-0.387-31.805-18.87-32.416-19.923
								c-0.637-1.098-0.3-2.262-0.036-2.876c-0.001,0-0.001,0-0.001,0c-7.076,0.504-12.323-1.54-15.615-3.51
								c-0.904,1.514-2.595,5.034-1.399,8.625c1.587,4.761,12.425,12.32,18.933,15.496c4.676,2.282,25.898,11.938,27.617,13.525
								c1.719,1.587,1.745,3.881,3.363,5.155c1.618,1.275,5.187,2.66,8.124,2.653c1.621-0.004,2.417-1.064,2.368-2.093
								c0,0,4.023,0.787,6.394,0c2.143-0.711,2.088-1.639,1.353-2.178c0,0,2.312-0.029,3.481-0.889S207.282,285.932,206.251,285.141
								z"/>
							<path style="fill:#CF8A7D;" d="M143.257,253.135c2.27-0.133,4.613-0.263,6.84,0.293c0.325,0.081,0.634,0.206,0.917,0.29
								c-0.376-0.977-0.089-1.951,0.145-2.493c-0.001,0-0.001,0-0.001,0c-7.076,0.504-12.323-1.54-15.615-3.51
								c-0.587,0.982-1.5,2.811-1.746,4.954c0.152,0.082,0.305,0.163,0.463,0.228c1.618,0.658,3.43,0.566,5.174,0.464
								C140.709,253.285,141.983,253.21,143.257,253.135z"/>
							<g>
								<path style="fill:#AE7B7D;" d="M204.197,284.847c-1.23,0.344-2.514,0.511-3.8,0.494c-1.283-0.012-2.585-0.229-3.79-0.701
									c-2.385-0.955-4.624-2.225-6.693-3.719c1.101,0.645,2.222,1.25,3.351,1.834c1.134,0.573,2.276,1.132,3.462,1.574
									c1.163,0.484,2.418,0.69,3.678,0.757C201.665,285.146,202.942,285.071,204.197,284.847z"/>
								<path style="fill:#AE7B7D;" d="M202.297,288.899c-2.58,0.211-5.189-0.07-7.717-0.641c-1.261-0.314-2.5-0.73-3.676-1.284
									c-1.168-0.565-2.294-1.243-3.243-2.124c1.026,0.784,2.18,1.373,3.349,1.89c1.181,0.497,2.398,0.909,3.647,1.193
									c1.246,0.307,2.514,0.52,3.789,0.684C199.721,288.774,201.006,288.878,202.297,288.899z"/>
								<path style="fill:#AE7B7D;" d="M194.551,291.077c-1.689-0.191-3.327-0.723-4.881-1.419
									c-0.771-0.364-1.514-0.792-2.213-1.279c-0.702-0.487-1.328-1.075-1.892-1.706c0.651,0.544,1.32,1.052,2.034,1.493
									c0.716,0.434,1.442,0.856,2.212,1.19c0.755,0.365,1.537,0.67,2.327,0.958C192.931,290.594,193.732,290.859,194.551,291.077z
									"/>
							</g>
						</g>
					</g>
					<g>
						<path style="fill:#E19A7D;" d="M190.181,172.903c0,0,1.212,4.102-1.585,16.315c-2.797,12.213-12.021,15.012-20.067,12.694
							c-8.046-2.318-9-18.546-9-18.546s-3.981,0.273-5.091-2.229c-2.504-5.649,5.416-7.92,5.533-7.105
							c0.117,0.815,0.582,6.697,2.097,6.406c1.514-0.291,3.203-7.454,2.912-10.599c0,0,7.571,3.436,10.89-4.426
							c0,0,2.737,12.754,12.346,5.94C188.216,171.354,188.594,172.764,190.181,172.903z"/>
						<path style="fill:#5B406A;" d="M189.439,161.814c0,0-5.131-16.378-23.478-6.045c0,0-9.556-3.589-14.581,3.62
							c-3.233,4.639-0.111,10.439-0.111,10.439s-4.758,3.932-4.069,10.283c0.59,5.443,5.115,7.214,5.115,7.214
							s-3.008,5.677-0.488,8.049c1.902,1.79,4.662,0.522,4.662,0.522s0.298,3.133,3.953,2.238c1.275-0.312,2.103-0.738,2.65-1.16
							c-3.085-5.57-3.562-13.606-3.562-13.606s-3.981,0.273-5.091-2.229c-2.504-5.649,5.416-7.92,5.533-7.105
							c0.117,0.815,0.582,6.697,2.097,6.406c1.514-0.291,3.203-7.454,2.912-10.599c0,0,7.571,3.436,10.89-4.426
							c0,0,2.737,12.754,12.346,5.94c0,0,0.378,1.41,1.965,1.549c0,0,4.108-0.123,4.038-5.395
							C194.148,162.236,189.439,161.814,189.439,161.814z"/>
						<path style="fill:#C77975;" d="M158.971,178.199c0.012-0.26,0.051-0.521,0.017-0.778c-0.034-0.258-0.156-0.521-0.384-0.645
							c-0.126-0.069-0.274-0.09-0.418-0.091c-0.349-0.004-0.695,0.097-1.004,0.262c-0.827,0.441-1.372,1.363-1.361,2.3
							c0.005,0.411,0.116,0.831,0.375,1.149c0.345,0.423,0.913,0.615,1.459,0.627c0.387,0.009,1.552-0.006,1.654-0.526
							c0.059-0.301-0.169-0.748-0.228-1.046C158.999,179.039,158.95,178.619,158.971,178.199z"/>
						<path style="fill:#64484F;" d="M173.453,179.413c0,1.198-0.506,2.17-1.131,2.17c-0.624,0-1.131-0.971-1.131-2.17
							c0-1.199,0.506-2.17,1.131-2.17C172.947,177.242,173.453,178.214,173.453,179.413z"/>
						<ellipse style="fill:#64484F;" cx="183.195" cy="179.239" rx="1.131" ry="2.17"/>
						<path style="fill:#C77975;" d="M177.156,187.329c-0.946-0.205,1.84-0.875,1.781-1.841c-0.059-0.966-0.937-1.778-1.9-1.874
							c0,0,1.997-0.894,2.566,1.155C180.171,186.817,178.465,187.613,177.156,187.329z"/>
						<path style="fill:#64484F;" d="M170.365,176.068c-0.353,0.183-0.673,0.414-0.991,0.645c-0.474,0.343-0.948,0.686-1.421,1.03
							c-0.389-0.201-0.511-0.695-0.372-1.087c0.139-0.391,0.478-0.693,0.835-0.94c1.18-0.816,2.699-1.202,4.164-1.057
							c0.209,0.021,0.424,0.054,0.597,0.164c0.877,0.555-0.591,0.636-0.924,0.687C171.599,175.611,170.948,175.766,170.365,176.068z
							"/>
						<path style="fill:#64484F;" d="M183.55,176.042c0.387,0.09,0.754,0.235,1.119,0.38c0.544,0.216,1.088,0.431,1.632,0.647
							c0.328-0.29,0.323-0.8,0.092-1.145c-0.232-0.345-0.634-0.553-1.041-0.704c-1.345-0.499-2.912-0.498-4.297,0.003
							c-0.197,0.072-0.398,0.157-0.538,0.306c-0.713,0.755,0.73,0.47,1.065,0.438C182.242,175.904,182.911,175.893,183.55,176.042z"
							/>
						<path style="fill:#AD636D;" d="M178.61,192.706c0.701-0.173,1.538-0.369,2.068,0.121c0.217,0.201,0.337,0.488,0.397,0.778
							c0.213,1.028-0.278,2.109-1.042,2.829c-0.764,0.72-1.765,1.134-2.768,1.445c-1.411,0.438-2.936,0.701-4.359,0.302
							c-1.812-0.508-4.273-3.592-1.885-5.039c0.757-0.459,1.861-0.18,2.68-0.112C175.357,193.169,176.991,193.105,178.61,192.706z"
							/>
						<path style="fill:#E16D6D;" d="M180.033,196.434c0.188-0.177,0.359-0.376,0.507-0.59c-0.816-0.795-2.131-1.056-3.316-1.028
							c-1.845,0.044-4.509,0.546-5.904,1.875c-0.097,0.092-0.173,0.183-0.238,0.273c0.545,0.587,1.219,1.048,1.825,1.217
							c1.422,0.399,2.948,0.136,4.359-0.302C178.268,197.568,179.268,197.154,180.033,196.434z"/>
					</g>
					<path style="fill:#CF8A7D;" d="M198.333,333.493c-0.112-1.017-0.233-1.973-0.356-2.852c-6.848,2.223-14.362,1.477-17.512,1.003
						h0c0,0,1.227,5.456,1.498,12.485c2.921-3.36,5.831-6.711,9.755-8.71C193.904,334.307,196.096,333.804,198.333,333.493z"/>
				</g>
			</g>
			<g>
				<g>
					<path style="fill:#F7C360;" d="M122.295,145.653l-5.527-7.443c-5.886-7.926-17.083-9.58-25.009-3.694l0,0
						c-7.926,5.886-9.58,17.083-3.694,25.009l5.528,7.443c2.049,2.759,1.473,6.657-1.286,8.705l0,0l2.951,3.973l38.694-28.734
						l-2.95-3.973l0,0C128.242,148.988,124.344,148.412,122.295,145.653z"/>
					<path style="fill:#F7EC8C;" d="M92.307,175.673l2.951,3.973l38.694-28.734l-2.95-3.973c-2.224,1.651-5.186,1.595-7.325,0.068
						L94.49,168.681C95.334,171.17,94.531,174.021,92.307,175.673z"/>
					<path style="fill:#D5B160;" d="M120.376,173.051L120.376,173.051c-3.13,2.324-7.552,1.671-9.876-1.459l-1.563-2.104
						l11.335-8.417l1.563,2.104C124.159,166.305,123.506,170.726,120.376,173.051z"/>
					
						<rect x="108.486" y="164.968" transform="matrix(0.8028 -0.5962 0.5962 0.8028 -76.5123 101.7227)" style="fill:#B79360;" width="14.118" height="3.154"/>
					<path style="fill:#B79360;" d="M91.759,134.516L91.759,134.516c1.587-1.179,3.309-2.041,5.089-2.625l-3.299-5.88
						c-0.553-0.986-1.846-1.262-2.754-0.588l-7.463,5.542c-0.908,0.674-1.017,1.992-0.233,2.806l4.675,4.858
						C88.849,137.093,90.172,135.694,91.759,134.516z"/>
					<path style="fill:#9C7460;" d="M87.775,138.628c1.074-1.536,2.397-2.934,3.985-4.113l0,0c1.587-1.179,3.309-2.041,5.089-2.625
						l-1.612-2.873c-1.89,0.678-3.715,1.635-5.411,2.894v0c-1.696,1.259-3.14,2.73-4.335,4.343L87.775,138.628z"/>
				</g>
				<g>
					
						<rect x="13.156" y="263.545" transform="matrix(0.4766 -0.8791 0.8791 0.4766 -210.4097 182.1842)" style="fill:#FF6E9C;" width="69.262" height="8.484"/>
					<polygon style="fill:#A6589C;" points="35.013,300.254 27.554,296.211 26.116,304.981 28.449,306.246 					"/>
					
						<rect x="28.968" y="281.997" transform="matrix(0.4766 -0.8791 0.8791 0.4766 -231.8656 183.0466)" style="fill:#FF9A9C;" width="17.635" height="8.484"/>
					
						<rect x="61.671" y="234.66" transform="matrix(0.4766 -0.8791 0.8791 0.4766 -176.8189 180.8298)" style="fill:#FF9A9C;" width="3.549" height="8.484"/>
					<path style="fill:#A6589C;" d="M67.657,233.212l-1.743-0.945c-1.095-0.594-2.463-0.187-3.057,0.908l-1.42,2.62l5.708,3.094
						l1.42-2.62C69.159,235.174,68.752,233.805,67.657,233.212z"/>
					
						<rect x="24.821" y="306.561" transform="matrix(0.4766 -0.8791 0.8791 0.4766 -256.0937 184.0068)" style="fill:#595D6D;" width="3.335" height="1.038"/>
					<polygon style="fill:#A6589C;" points="68.02,239.363 72.281,241.673 63.151,261.504 58.389,262.568 60.425,258.812 
						62.463,257.97 68.19,243.492 66.329,242.483 					"/>
				</g>
				<g>
					<path style="fill:#84D1ED;" d="M5.662,355.092L34.474,416.8l19.76-9.226l-28.812-61.708L5.662,355.092z M11.86,358.455
						c-1.026,0.479-2.246,0.036-2.725-0.99c-0.479-1.026-0.036-2.246,0.99-2.725c1.026-0.479,2.246-0.036,2.725,0.99
						C13.33,356.755,12.886,357.976,11.86,358.455z"/>
					<g>
						
							<rect x="20.014" y="350.072" transform="matrix(0.9061 -0.4231 0.4231 0.9061 -146.1413 42.9368)" style="fill:#595D6D;" width="7.28" height="1.227"/>
						
							<rect x="25.759" y="354.33" transform="matrix(0.9061 -0.4231 0.4231 0.9061 -147.5725 45.0122)" style="fill:#595D6D;" width="3.709" height="1.227"/>
						
							<rect x="24.696" y="360.099" transform="matrix(0.9061 -0.4231 0.4231 0.9061 -149.9439 45.859)" style="fill:#595D6D;" width="7.28" height="1.227"/>
						
							<rect x="30.44" y="364.357" transform="matrix(0.9061 -0.4231 0.4231 0.9061 -151.3751 47.9345)" style="fill:#595D6D;" width="3.709" height="1.227"/>
						
							<rect x="29.378" y="370.126" transform="matrix(0.9061 -0.4231 0.4231 0.9061 -153.7464 48.7813)" style="fill:#595D6D;" width="7.28" height="1.227"/>
						
							<rect x="35.122" y="374.384" transform="matrix(0.9061 -0.4231 0.4231 0.9061 -155.1776 50.8568)" style="fill:#595D6D;" width="3.709" height="1.227"/>
						
							<rect x="34.06" y="380.153" transform="matrix(0.9061 -0.4231 0.4231 0.9061 -157.5531 51.706)" style="fill:#595D6D;" width="7.28" height="1.227"/>
						
							<rect x="39.804" y="384.412" transform="matrix(0.9061 -0.423 0.423 0.9061 -158.9721 53.7743)" style="fill:#595D6D;" width="3.709" height="1.227"/>
						
							<rect x="38.741" y="390.181" transform="matrix(0.9061 -0.4231 0.4231 0.9061 -161.3515 54.6259)" style="fill:#595D6D;" width="7.28" height="1.227"/>
						
							<rect x="44.486" y="394.439" transform="matrix(0.9061 -0.4231 0.4231 0.9061 -162.7828 56.7015)" style="fill:#595D6D;" width="3.709" height="1.227"/>
						
							<rect x="43.423" y="400.208" transform="matrix(0.9061 -0.4231 0.4231 0.9061 -165.1541 57.5481)" style="fill:#595D6D;" width="7.28" height="1.227"/>
						
							<rect x="49.168" y="404.466" transform="matrix(0.9061 -0.4231 0.4231 0.9061 -166.5854 59.6238)" style="fill:#595D6D;" width="3.709" height="1.227"/>
					</g>
				</g>
				<g>
					<path style="fill:#CEEDED;" d="M204.764,109.476l9.767,29.875c0,0,10.804-15.343,30.99-10.132l-9.767-29.876
						C235.754,99.344,222.198,94.754,204.764,109.476z"/>
					<path style="fill:#C2E6ED;" d="M266.744,89.212l9.767,29.875c0,0-17.781-5.998-30.99,10.132l-9.767-29.876
						C235.754,99.344,243.981,87.632,266.744,89.212z"/>
					<path style="fill:#B2D6EC;" d="M245.521,129.22c-20.186-5.211-30.99,10.132-30.99,10.132s19.975-8.083,27.746-2.837
						l10.17-3.325c3.171-8.823,24.063-14.101,24.063-14.101S258.731,113.09,245.521,129.22z"/>
					<g>
						<path style="fill:#898B97;" d="M210.746,113.791l-0.384-0.384c10.188-10.188,24.333-9.984,24.475-9.982l-0.013,0.543
							C234.693,103.962,220.762,103.775,210.746,113.791z"/>
						<path style="fill:#898B97;" d="M211.67,119.201l-0.384-0.384c1.635-1.635,3.473-3.103,5.465-4.365l0.291,0.46
							C215.083,116.151,213.276,117.594,211.67,119.201z"/>
						<path style="fill:#898B97;" d="M220.3,113.095l-0.238-0.488c8.009-3.898,15.619-3.766,15.698-3.772l-0.012,0.543
							C235.665,109.379,228.186,109.257,220.3,113.095z"/>
						<path style="fill:#898B97;" d="M213.302,124.085l-0.384-0.384c10.185-10.185,25.079-9.91,25.224-9.914l-0.014,0.544
							C237.966,114.319,223.317,114.069,213.302,124.085z"/>
						<path style="fill:#898B97;" d="M214.723,128.165l-0.384-0.384c4.033-4.032,9.2-6.625,15.358-7.708l0.094,0.535
							C223.745,121.671,218.676,124.214,214.723,128.165z"/>
						<path style="fill:#898B97;" d="M239.418,120.297c-0.02-0.003-2.015-0.305-4.988-0.185l-0.022-0.543
							c3.034-0.119,5.011,0.178,5.093,0.191L239.418,120.297z"/>
						<path style="fill:#898B97;" d="M216.129,133.818l-0.384-0.384c10.194-10.194,26.297-8.739,26.459-8.725l-0.053,0.541
							C241.994,125.233,226.139,123.808,216.129,133.818z"/>
						<path style="fill:#898B97;" d="M247.495,97.572l-0.217-0.498c5.712-2.485,11.631-3.535,17.598-3.124l-0.038,0.542
							C258.961,94.081,253.125,95.123,247.495,97.572z"/>
						<path style="fill:#898B97;" d="M239.056,102.624l-0.359-0.409c0.021-0.018,2.136-1.862,5.771-3.788l0.255,0.48
							C241.149,100.801,239.077,102.606,239.056,102.624z"/>
						<path style="fill:#898B97;" d="M241.349,106.765l-0.359-0.409c0.106-0.093,10.8-9.315,26.179-8.265l-0.038,0.542
							C251.98,97.587,241.453,106.674,241.349,106.765z"/>
						<path style="fill:#898B97;" d="M263.018,104.067l-0.04-0.542c1.727-0.13,3.476-0.133,5.199-0.015l-0.038,0.542
							C266.442,103.935,264.72,103.94,263.018,104.067z"/>
						<path style="fill:#898B97;" d="M242.357,112.184l-0.359-0.409c0.064-0.056,6.487-5.623,16.46-7.627l0.107,0.533
							C248.742,106.655,242.419,112.129,242.357,112.184z"/>
						<path style="fill:#898B97;" d="M248.611,113.29l-0.264-0.475c4.614-2.565,12.019-5.492,21.12-4.865l-0.038,0.542
							C260.469,107.874,253.16,110.76,248.611,113.29z"/>
						<path style="fill:#898B97;" d="M243.647,116.625l-0.359-0.409c0.034-0.03,0.85-0.743,2.363-1.757l0.303,0.451
							C244.473,115.903,243.655,116.618,243.647,116.625z"/>
						<path style="fill:#898B97;" d="M245.701,122.088l-0.359-0.409c0.106-0.093,10.803-9.317,26.179-8.266l-0.038,0.542
							C256.339,112.909,245.805,121.995,245.701,122.088z"/>
					</g>
				</g>
				<g>
					<polygon style="fill:#E6A960;" points="398.027,142.447 395.672,143.116 368.738,109.087 370.511,107.684 					"/>
					<polygon style="fill:#F7C360;" points="399.218,140.309 398.027,142.447 370.511,107.684 372.284,106.28 					"/>
					<polygon style="fill:#F7D660;" points="402.154,140.375 399.218,140.309 372.284,106.28 374.057,104.877 					"/>
					
						<rect x="367.369" y="105.152" transform="matrix(0.7841 -0.6206 0.6206 0.7841 14.1488 253.0289)" style="fill:#F7EBBA;" width="6.784" height="2.051"/>
					<path style="fill:#FF6E9C;" d="M372.784,103.269l-5.319,4.21l-1.08-1.364c-1.163-1.469-0.914-3.602,0.555-4.765l0,0
						c1.469-1.163,3.602-0.914,4.765,0.555L372.784,103.269z"/>
					<polygon style="fill:#F7EBBA;" points="395.672,143.116 404.266,148.508 402.154,140.375 399.218,140.309 398.027,142.447 
											"/>
					<polygon style="fill:#887D8D;" points="404.266,148.508 403.422,145.258 401.505,146.776 					"/>
				</g>
				<g>
					<g>
						
							<rect x="425.891" y="206.821" transform="matrix(0.4838 -0.8752 0.8752 0.4838 22.8513 510.6743)" style="fill:#C9C178;" width="36.931" height="58.288"/>
						
							<rect x="429.132" y="210.123" transform="matrix(0.4838 -0.8752 0.8752 0.4838 22.8514 510.6745)" style="fill:#695B62;" width="30.449" height="51.684"/>
						<polygon style="fill:#A29C61;" points="427.786,205.703 429.107,210.137 474.339,235.144 478.785,233.864 						"/>
						<polygon style="fill:#A29C61;" points="414.375,236.785 409.917,238.023 460.928,266.226 459.606,261.792 						"/>
					</g>
					
						<text transform="matrix(0.8752 0.4839 -0.4839 0.8752 429.5146 232.7493)" style="fill:#FFFFFF; font-family:'Pacifico'; font-size:14.4933px;">a b c</text>
				</g>
				<g>
					<path style="fill:#3C5073;" d="M486.682,361.816l-0.13,0.056c-1.598,0.692-3.454-0.042-4.146-1.64l-7.671-17.709l5.915-2.562
						l7.671,17.709C489.014,359.268,488.279,361.124,486.682,361.816z"/>
					<path style="fill:#49628C;" d="M486.682,361.816l-0.13,0.056c-1.598,0.692-3.454-0.042-4.146-1.64l-4.191-9.676l5.915-2.562
						l4.191,9.676C489.014,359.268,488.279,361.124,486.682,361.816z"/>
					
						<ellipse transform="matrix(0.8747 -0.4846 0.4846 0.8747 -99.4748 269.5464)" style="fill:#59749F;" cx="471.597" cy="327.169" rx="17.303" ry="17.303"/>
					
						<ellipse transform="matrix(0.1469 -0.9892 0.9892 0.1469 78.7064 745.5955)" style="fill:#84D1ED;" cx="471.597" cy="327.169" rx="12.921" ry="12.921"/>
					<path style="fill:#C5E2ED;" d="M476.728,319.848c0.796,1.837-0.048,3.972-1.886,4.767s-3.972-0.048-4.767-1.886
						c-0.796-1.837,0.048-3.972,1.886-4.767C473.798,317.167,475.932,318.011,476.728,319.848z"/>
				</g>
			</g>
		</g>
	</g>
</g>
</svg>
